<?xml version="1.0" encoding="UTF-8" standalone="no"?>
<svg width="32" height="32" viewBox="0 0 32 32" fill="none" xmlns="http://www.w3.org/2000/svg">
  <rect width="32" height="32" rx="6" fill="#0A2463"/>
  <path d="M7.5 10C7.5 9.44772 7.94772 9 8.5 9H14.5C15.0523 9 15.5 9.44772 15.5 10V11C15.5 11.5523 15.0523 12 14.5 12H8.5C7.94772 12 7.5 11.5523 7.5 11V10Z" fill="white"/>
  <path d="M7.5 15C7.5 14.4477 7.94772 14 8.5 14H12.5C13.0523 14 13.5 14.4477 13.5 15V16C13.5 16.5523 13.0523 17 12.5 17H8.5C7.94772 17 7.5 16.5523 7.5 16V15Z" fill="white"/>
  <path d="M7.5 20C7.5 19.4477 7.94772 19 8.5 19H14.5C15.0523 19 15.5 19.4477 15.5 20V21C15.5 21.5523 15.0523 22 14.5 22H8.5C7.94772 22 7.5 21.5523 7.5 21V20Z" fill="white"/>
  <path d="M16.5 10C16.5 9.44772 16.9477 9 17.5 9H23.5C24.0523 9 24.5 9.44772 24.5 10V11C24.5 11.5523 24.0523 12 23.5 12H17.5C16.9477 12 16.5 11.5523 16.5 11V10Z" fill="white"/>
  <path d="M18.5 15C18.5 14.4477 18.9477 14 19.5 14H23.5C24.0523 14 24.5 14.4477 24.5 15V16C24.5 16.5523 24.0523 17 23.5 17H19.5C18.9477 17 18.5 16.5523 18.5 16V15Z" fill="white"/>
  <path d="M16.5 20C16.5 19.4477 16.9477 19 17.5 19H23.5C24.0523 19 24.5 19.4477 24.5 20V21C24.5 21.5523 24.0523 22 23.5 22H17.5C16.9477 22 16.5 21.5523 16.5 21V20Z" fill="white"/>
</svg> 