<svg xmlns="http://www.w3.org/2000/svg" id="Layer_1" data-name="Layer 1" viewBox="0 0 849.05 261.59"><defs><style>.cls-1{fill:#076fb2;}.cls-2{fill:#25305d;}.cls-3{fill:#21aae0;}.cls-4{fill:#1b92cf;}</style></defs><path class="cls-1" d="M260.73,956.53c-.55,40-16.05,72.42-47.57,97.64-43.36,34.7-90.46,39.74-139.78,16.74-40.44-18.85-63.83-52.28-71.71-96.26A90.73,90.73,0,0,1,.32,950.19l10.68,0c.59,15.51,2.07,30.79,7.9,45.48,12.64,31.84,34.28,55,65.9,68.2,55.3,23.1,118.1,1.85,148.72-49.49,10.69-17.93,15.33-37.4,17.1-57.84Z" transform="translate(0 -823.36)"></path><path class="cls-2" d="M528.58,995c-4.76,0-9.52-.13-14.27,0-6.13.21-8.48-2.77-8.45-8.69q.17-32.47,0-64.95c0-5.93,2.49-9,8.41-8.92,11.08.17,22.19-.78,33.23,1.12,16.45,2.83,27.79,13.91,30.48,30,5.34,32-10.64,51.07-43.06,51.41C532.8,995,530.69,995,528.58,995Zm-7.66-41.62V966c0,18.08,0,18.08,18.59,16.36,15.72-1.46,23.71-10.29,24.1-26.63.44-18.51-6.68-28.29-22.66-30.42-5.19-.69-10.53-.16-15.79-.46-3.73-.21-4.33,1.67-4.28,4.8C521,937.55,520.92,945.45,520.92,953.36Z" transform="translate(0 -823.36)"></path><path class="cls-2" d="M439.19,956.89c0,11.15,0,20.12,0,29.09,0,5.41-1.63,9.8-7.76,9.76s-7.65-4.35-7.62-9.82q.15-32.1,0-64.2c0-5.4,1.35-9.64,7.71-9.61s7.64,4.5,7.65,9.76v27.28l30.16-28.1c2.32-2.16,4.58-4.38,6.92-6.51,3.15-2.88,6.59-3.63,9.82-.37,3.51,3.55,2.68,7.15-.75,10.32-8.15,7.52-16,15.42-24.66,22.35-5.74,4.62-5.3,7.19.08,11.67,8.93,7.42,17.17,15.68,25.68,23.6,3.35,3.11,5.93,6.63,2.1,10.87-4,4.41-8,2.62-11.66-.83C464.82,980.84,452.73,969.55,439.19,956.89Z" transform="translate(0 -823.36)"></path><path class="cls-2" d="M737.18,912c4.32-.11,6.8,2.45,8.46,6q15.52,33.27,31,66.55c1.94,4.13,2.09,7.82-2.46,10.06-4.84,2.38-8.94.23-10-4.42-3-14-12.37-16.3-24.5-14.49a20.3,20.3,0,0,1-6.32,0c-11.81-2-20.27,1-23.17,14-1,4.66-4.63,7.14-9.68,5.13-5.33-2.13-5-6.27-3-10.51q15.45-33.3,31-66.55C730.33,914.06,733,911.9,737.18,912Zm-15.12,51.7h30.25c-5.06-11.37-9.82-22-15.15-34Z" transform="translate(0 -823.36)"></path><path class="cls-2" d="M367.22,912c4.32,0,6.72,2.55,8.39,6.12q15.52,33.28,31.07,66.57c2,4.23,1.86,7.81-2.65,10-4.91,2.36-8.86,0-9.92-4.58-3.06-13.33-11.66-16.41-23.77-14.38a22.38,22.38,0,0,1-7.12,0c-11.79-1.89-20.3,1-23.11,14.11-1,4.77-4.74,7-9.71,5-5.25-2.19-4.84-6.28-2.85-10.55q15.51-33.29,31.06-66.56C360.35,913.91,363,911.89,367.22,912Zm-.13,17.73-15.35,34.43c9.42,0,17.52-.12,25.62.05,3.79.09,4.7-1.2,3.16-4.58C376.22,950.12,372,940.62,367.09,929.71Z" transform="translate(0 -823.36)"></path><path class="cls-3" d="M30.21,870.87c30.18-36.31,69.21-51.15,115.7-46.76a120,120,0,0,1,64.32,26.07c10.21,8.12,20.25,16.63,26.88,28.26-3.64,2.41-7.77,1.84-11.79,1.92-6.55-6.8-12.76-13.91-20.36-19.72-34.68-26.5-72.72-32.78-114.06-19.24C71.49,847.76,55.67,859.73,41.45,874,37.42,874,33.23,874.51,30.21,870.87Z" transform="translate(0 -823.36)"></path><path class="cls-2" d="M655.64,958.87c0-9.24-.24-18.5.1-27.73.17-4.71-.93-6.73-6.06-6.28s-10.57.07-15.85.06c-3.76,0-6.13-1.85-6.46-5.54-.37-4.19,2.15-6.73,6.08-6.76q29.73-.29,59.47,0c4,0,6.37,2.45,6.12,6.69s-3,5.74-7,5.69c-5-.05-10.08.35-15.06-.08s-6.17,1.69-6.11,6.35c.23,18,0,35.94.12,53.9,0,5.58-1,10.54-7.77,10.48s-7.74-5-7.63-10.58C655.77,976.31,655.64,967.59,655.64,958.87Z" transform="translate(0 -823.36)"></path><path class="cls-2" d="M793.85,953.66c0-10,0-20.07,0-30.1,0-5.53,0-11.29,7.52-11.39,8.08-.12,8,6,7.95,11.77,0,17.16.21,34.32-.12,51.47-.1,5.36,1,7.53,6.86,7.16,8.16-.51,16.37-.18,24.56-.09,4.18,0,8.34.77,8.44,6.13.1,5.94-4.24,6.4-8.8,6.38-12.15,0-24.31-.28-36.45.08-7.77.23-10.26-3.27-10-10.53C794.09,974.26,793.85,964,793.85,953.66Z" transform="translate(0 -823.36)"></path><path class="cls-2" d="M598.6,952.83c0-10.3,0-20.61,0-30.91,0-5.32,1.19-9.69,7.56-9.8s7.91,4.15,7.91,9.5c0,21.4,0,42.8,0,64.19,0,5.37-1.53,9.87-7.62,9.91-6.6,0-8-4.73-7.89-10.4C598.69,974.49,598.6,963.66,598.6,952.83Z" transform="translate(0 -823.36)"></path><path class="cls-4" d="M225.32,880.36c4-.08,8.15.49,11.79-1.92,17,23.29,25.46,49.13,23.62,78.09H250.62c-2.19-7.13-.86-14.58-2-21.82C245.39,914.62,236.9,896.84,225.32,880.36Z" transform="translate(0 -823.36)"></path><path class="cls-4" d="M30.21,870.87c3,3.64,7.21,3.09,11.24,3.16C23.13,896.15,12.38,921.29,11,950.17l-10.68,0C.6,920.11,10.82,893.76,30.21,870.87Z" transform="translate(0 -823.36)"></path><path class="cls-4" d="M130.94,867.36c27.09,0,43.18,27.29,30,50.92-7.29,13-18.16,23.31-27.49,34.78-1.6,2-3.16,2.77-5.07.36-9.65-12.21-21.42-22.8-28.6-36.87-9.24-18.11-.93-39.66,18-47.31C122,867.49,126.44,867.42,130.94,867.36Z" transform="translate(0 -823.36)"></path><path class="cls-1" d="M99.94,943.85a111.89,111.89,0,0,1,18.37,23.57c8.08,14.16,4.6,32.2-7.94,42.79a35,35,0,0,1-44.47.46C52.49,999.79,49,982.88,57.35,967.53c5.19-9.55,12.21-17.76,19.88-25.42,1,3.29,3.71,3.08,6.37,3.32C89.17,945.91,94.53,944.69,99.94,943.85Z" transform="translate(0 -823.36)"></path><path class="cls-1" d="M192.43,951.56a75.37,75.37,0,0,1,12.31,17,34.16,34.16,0,0,1-9.07,42.08,35.08,35.08,0,0,1-43.95,0c-12.83-10.41-16.54-27.3-9.11-41.95A66.44,66.44,0,0,1,155,951.42,83.57,83.57,0,0,0,192.43,951.56Z" transform="translate(0 -823.36)"></path><path class="cls-4" d="M192.43,951.56a83.57,83.57,0,0,1-37.43-.14c5.35-6.47,10.78-12.88,16-19.44,2.06-2.58,3.48-2.32,5.43.11C181.7,938.65,187.1,945.08,192.43,951.56Z" transform="translate(0 -823.36)"></path><path class="cls-4" d="M99.94,943.85c-5.41.84-10.77,2.06-16.34,1.58-2.66-.24-5.37,0-6.37-3.32,9.84-14.32,9.85-14.32,20.55-1.42A34.52,34.52,0,0,1,99.94,943.85Z" transform="translate(0 -823.36)"></path></svg>