<svg xmlns="http://www.w3.org/2000/svg" id="Layer_1" data-name="Layer 1" viewBox="0 0 849.67 443.16"><defs><style>.cls-1{fill:#fb5004;}.cls-2{fill:#020202;}</style></defs><path class="cls-1" d="M474.71,463.13c.85,1.18,2.17,1,3.35,1,16.52.41,33-.12,49.59,1,15.44,1.06,31,1.2,46.53,1.54,21,.47,42,2.12,62.93,3.26,7.6.41,15.49-.55,23,2.1,14.69,5.17,24.86,21.77,22.46,37.17-2.3,14.83-9.36,28.06-14.56,41.86q-16.17,42.95-33.93,85.28c-6.83,16.33-13.16,32.94-22,48.42-1.68,2.94-1.11,6.85-3.52,9.53-.75.83-.62,3.36-2.86,2-1.34-.78-.92-2-.52-3.23,1.52-4.83,2.87-9.71,4.39-14.54q10.67-33.86,21.38-67.7c7.64-24.09,15.36-48.16,23-72.26,2.92-9.28,5.73-18.59,8.31-28,2.62-9.56-2.11-15.73-11.89-15.63-33.38.31-66.76.21-100.13.23-26.06,0-52.17-.71-78.19,0-51.52,1.45-103,.58-154.53.77-10.28,0-20.56-.88-30.83-.91-38.89-.1-77.78,0-116.67,0-12.89,0-25.83.57-38.67-.3-14.57-1-17.13,9.54-13.27,19.56,5.26,13.65,10.79,27.2,16.25,40.77,5.8,14.44,11.73,28.83,17.5,43.29,7.73,19.39,16,38.61,22.82,58.31,4,11.35,10,21.76,13.6,33.17.5,1.58,2.53,3.49.09,4.56-2.18,1-3-1.51-3.87-3.07-7.93-14.72-16.05-29.34-23.65-44.23C146.78,619.67,133,592,119.19,564.29c-6.86-13.77-13.64-27.59-20.21-41.5-6.91-14.63-3.35-34.21,8.41-45.09a29.59,29.59,0,0,1,21.1-8c17.81.38,35.5-1.84,53.28-2.33,18.33-.5,36.74-.6,55-2.14,14.52-1.22,29-.72,43.49-1.08,1,0,2.07.11,2.62-1Z" transform="translate(29.43 -463.13)"></path><path class="cls-2" d="M820.23,903.09c-14.74,0-29.49,0-44.24.16-2.79,0-4.11-.67-5.26-3.53-7.28-18.21-14.9-36.29-22.43-54.41-.28-.69-.69-1.33-1.5-2.84-4.42,10.28-8.56,19.83-12.62,29.41-3.86,9.1-7.6,18.25-11.47,27.35-.85,2-1.58,4-4.63,4-15.09-.13-30.19-.06-45.75-.06,4.78-10,9.14-19.44,13.8-28.75,7.22-14.43,14.67-28.74,22-43.12a7.5,7.5,0,0,0,0-7.36c-10.23-20.39-20.27-40.88-30.32-61.36a72,72,0,0,1-2.5-7.05h20.74c7.58,0,15.17.16,22.74-.06,3.26-.1,4.94.72,6.25,4,6.53,16.42,13.39,32.7,20.17,49a32.21,32.21,0,0,0,1.9,3.27c5-11.43,9.66-22.23,14.33-33,3-7,6.17-13.93,8.87-21,1-2.57,2.67-2.09,4.37-2.09,13.12,0,26.23,0,39.34-.05,3.79,0,4.5.48,2.54,4.46-10.06,20.39-19.47,41.09-29.55,61.48-2.36,4.77-2.12,8.36.19,13,10.6,21.24,20.79,42.68,31.16,64,.41.84.59,2,1.87,2.14Z" transform="translate(29.43 -463.13)"></path><path class="cls-2" d="M-29.43,756c6.91-1.09,13.87-.41,20.8-.44,26.62-.1,53.23,0,79.85-.13,4.11,0,5.8.76,5.56,5.26-.4,7.73-.37,15.51-.13,23.25.13,3.83-1.17,4.82-4.88,4.78-16.58-.17-33.17,0-49.75-.17-3.63-.05-5,.79-4.9,4.51.2,7.11.15,14.22,0,21.33-.1,3.94,2.65,2.81,4.61,2.82,13.31.07,26.62.16,39.93,0,3.73-.06,5.5.54,5.2,4.86a134.63,134.63,0,0,0,0,17.74c.28,4.62-.87,6.27-6,6.1-12.67-.44-25.36-.06-38-.19-4.14,0-5.7.38-5.49,5.66.63,16-.06,32,0,48,0,3.63-1.59,3.94-4.43,3.92-14.13-.13-28.25-.15-42.37-.21Z" transform="translate(29.43 -463.13)"></path><path class="cls-2" d="M177.35,810.44c0-16.34.22-32.69-.13-49-.11-5,1.55-6.07,6.2-6,12.29.3,24.59.23,36.89,0,3.67-.06,4.87.8,4.85,4.69-.18,29.6.31,59.21-.29,88.8-.26,12.81-1.7,25.75-9.46,37-6.17,8.91-15,13.67-25,16.06-23.27,5.53-46.86,5.86-70,.18C99.51,897,90,885.21,86.91,864.31c-3.19-21.64-.77-43.6-1.17-65.41-.24-12.87.07-25.74-.16-38.61-.07-3.73.94-4.9,4.78-4.83,12.5.25,25,.3,37.5,0,4.4-.11,5.37,1.2,5.35,5.42-.19,29.61.18,59.23-.21,88.85-.28,21.41,12.37,24.83,28.8,23.72,1.59-.11,3.13-.78,4.72-1,7.7-.9,10.76-4.05,10.8-11.79C177.41,843.94,177.35,827.19,177.35,810.44Z" transform="translate(29.43 -463.13)"></path><path class="cls-2" d="M479.52,829.09c0-22.85.1-45.71-.08-68.56,0-3.94.94-5.22,5-5.06,18.17.73,36.3-1.84,54.49-.91,14.34.73,28.76.59,42.44,6.33C596,767,603.83,778,606.67,793.25c3.21,17.24-1.86,32.78-9.23,47.86-3.57,7.29-10.08,10.68-18,11.57-15.4,1.73-30.83,2.84-46.33,2.14-4.42-.2-5.71.73-5.46,5.72.61,12.46,0,25,.15,37.44.08,4.54-1.8,5.38-5.85,5.31-12.49-.21-25-.22-37.47.07-4.09.09-5.05-1.15-5-5.09C479.61,875.21,479.52,852.15,479.52,829.09Zm47.82-25.15h.4c0,5.38.17,10.76-.07,16.13-.13,2.93.78,4,3.73,3.85,7.7-.49,15.43-.7,23.12-1.32a5.69,5.69,0,0,0,5.26-4.07c6.65-17.56-1.07-31.52-19.26-34.15-4.22-.61-9-.54-12.3,1.52-2.42,1.52-.61,6.33-.84,9.67C527.19,798.35,527.34,801.15,527.34,803.94Z" transform="translate(29.43 -463.13)"></path><path class="cls-2" d="M297.18,903.2c-15.56,0-31.14-.25-46.69.13-5.79.15-7.65-1.38-7.6-7.36.4-43.9.46-87.81.61-131.71,0-8.65,0-8.68,8.67-8.7,11.47,0,22.94.17,34.4-.11,3.79-.09,4.69,1,4.7,4.66.1,34-.87,68-.61,102,0,6.19,2,5.85,6.1,5.83,16.18-.07,32.36.12,48.54-.11,4.35-.07,6.24.7,6,5.6-.43,8.35-.28,16.74-.06,25.1.1,3.74-1.1,4.85-4.9,4.8-16.38-.21-32.77-.09-49.15-.09Z" transform="translate(29.43 -463.13)"></path><path class="cls-2" d="M361.17,829.33c0-22.65.16-45.31-.13-68-.06-5,1.48-6.06,6.15-5.94,11.86.33,23.76.4,35.62,0,5.09-.19,5.89,1.59,5.87,6.14-.19,33.47,0,66.94-.22,100.41,0,4.77,1.14,6.2,6.06,6.1,16.38-.33,32.76,0,49.14-.2,3.62,0,5.06.72,4.93,4.69-.32,9-.21,18,0,26.93,0,2.92-.81,3.83-3.78,3.82q-49.75-.13-99.52,0c-4,0-4.11-1.82-4.1-4.82C361.21,875.46,361.18,852.4,361.17,829.33Z" transform="translate(29.43 -463.13)"></path><path class="cls-2" d="M617.93,859.1c0-16.44,0-32.87,0-49.31,0-3.13.18-4.94,4.4-4.82,13.09.37,26.19.21,39.29.1,3.46,0,4,1,4,4.57-.29,19.6-.14,39.21-.09,58.82,0,10.44.2,20.87.22,31.31,0,2.24-.83,3.54-3.68,3.5-13.3-.17-26.6-.2-39.9.05-3.89.07-3.69-2.1-3.69-4.58V859.1Z" transform="translate(29.43 -463.13)"></path><path class="cls-1" d="M642.55,755.61c6.13,0,12.27.17,18.4-.05,3.5-.12,4.55,1.15,4.49,4.57-.2,10.4-.15,20.79-.05,31.19,0,2.71-.51,4-3.66,4-13.09-.16-26.18-.11-39.27-.06-2.63,0-4.1-.47-4.09-3.68,0-10.62-.26-21.23-.47-31.85-.06-3.06,1.21-4.27,4.4-4.17C629,755.74,635.8,755.61,642.55,755.61Z" transform="translate(29.43 -463.13)"></path><path class="cls-1" d="M390.09,512.72c9.81,0,19.61-.06,29.41,0,6.46.06,9,2.49,9,8.17,0,4.92-3.62,8.32-9.22,8.35q-29.4.11-58.82,0c-5.92,0-9.28-3.49-9.18-9,.09-5.27,2.62-7.52,8.83-7.56C370.08,512.66,380.09,512.71,390.09,512.72Z" transform="translate(29.43 -463.13)"></path></svg>