<svg xmlns="http://www.w3.org/2000/svg" id="Layer_1" data-name="Layer 1" viewBox="0 0 848.7 232.07"><defs><style>.cls-1{fill:#2b3d81;}.cls-2{fill:#dc693d;}</style></defs><path class="cls-1" d="M-14.83-265.56c8.56.92,17.15.23,25.72.38,7.11.12,14.24.22,21.34-.06,3.54-.14,5.56,1.05,7.49,4,14.22,21.9,28.64,43.68,43,65.5L84.54-193c1.46-1.42.82-3,.82-4.25,0-21.25.1-42.5,0-63.75,0-3.3.85-4.25,4.21-4.22,16.42.17,32.84.08,50.34.08-27.68,18.21-43.07,42.72-43.47,75.23-.41,32.74,14.5,57.46,42.51,75.68-15.33,0-29.81-.55-44.22.22-8,.42-12.28-2.21-16.39-9-12.48-20.54-25.82-40.56-38.84-60.78a6.33,6.33,0,0,0-2.59-2.43c0,1.8,0,3.6,0,5.4-.29,21-.65,41.9-.83,62.84,0,2.92-.84,3.73-3.74,3.72-15.71-.07-31.41.07-47.12.14Z" transform="translate(14.83 270.87)"></path><path class="cls-1" d="M833.87-114.1c-16.44-.1-32.88-.37-49.32-.17-4.2,0-5.94-1.13-6.9-5.2-1.59-6.72-4-13.24-5.79-19.93-.67-2.53-1.81-3.27-4.29-3.17-4.44.17-8.91-.15-13.34.11-3.21.19-4.39-.58-4.29-4.06.26-9.14.2-18.3,0-27.44-.06-3,.58-4.38,3.84-4a53.05,53.05,0,0,0,6.39,0c-2.3-7.88-4.28-15.5-6.76-22.95a64.54,64.54,0,0,1-3.26-21.68c.21-13,.06-26-.17-39,0-2.93.74-3.8,3.68-3.75,10.08.16,20.16.25,30.24-.05,3.66-.11,5.08,1.09,6.09,4.5q14.65,49.56,29.6,99,6.61,22,13.33,43.95a14.62,14.62,0,0,0,.93,1.91Z" transform="translate(14.83 270.87)"></path><path class="cls-1" d="M193.34-270.87c3.48,1.65,7.35,1.6,11,2.58a78.72,78.72,0,0,1,38.21,22.86,23.51,23.51,0,0,1-9.42,2.85c-30.5-28.56-77-25.52-105.48,6.91-25.5,29-21.16,76.41,9.3,101,22.38-25.38,44.92-50.61,74.92-68.85-.11,2.63-1.48,3.22-2.37,4.05a286,286,0,0,0-23.08,24.52c-12.26,14.46-23.18,29.77-31.7,46.76-1.77,3.52-1,4.69,2.36,5.85,25.81,8.86,49.88,6.21,71.58-10.91,20.37-16.06,29-37.52,27.26-63-.95-14.11-6.68-26.75-15-38.2,1.68-2.46,4.4-3.46,6.85-4.83,11.65,14.09,17.11,30.48,17.27,48.52.24,27-10.74,49.24-32.07,65.43-23.27,17.66-49.72,21.53-77.32,11.68a80.65,80.65,0,0,1-43-116.09c12.12-21.25,30.42-34.45,54.52-39.59,1.61-.35,3.58.05,4.8-1.58Z" transform="translate(14.83 270.87)"></path><path class="cls-1" d="M833.87-82.22c-1.92.76-1.9,2.76-2.57,4.24-4.92,10.69-9.59,21.51-14.6,32.16-3.05,6.47-9.76,8.74-15.52,5.66-1.26-.67-2.78-1.2-1.58-3.28,1-1.79,1.9-1.05,3.16-.41,3,1.53,6.14,1.78,8.46-1.06s4.11-5.81,2.09-10c-4.54-9.39-8.62-19-12.9-28.54,3.33-1.32,4.84-.13,6,2.71,3.24,7.84,6.76,15.56,10.62,24.36,3.81-8.43,7.35-15.78,10.42-23.31,1.3-3.18,2.82-5,6.4-4.3Z" transform="translate(14.83 270.87)"></path><path class="cls-1" d="M585.67-193.78v-44.14c0-7.82.09-15.64,0-23.46-.06-2.69.38-3.87,3.55-3.84,14.82.18,29.65.16,44.47,0,2.92,0,3.71.77,3.7,3.69q-.14,71.73,0,143.46c0,2.93-.79,3.75-3.7,3.72q-22.25-.19-44.48,0c-2.78,0-4.21-1.05-5.62-3.24q-21.12-32.73-42.43-65.35c-.93-1.42-1.54-3.12-3.21-4.16-.91,1.6-.45,3.23-.45,4.76,0,21.25-.1,42.5,0,63.76,0,3.3-.85,4.27-4.21,4.23-14.52-.17-29.06-.21-43.58,0-3.75.06-4.34-1.27-4.33-4.56q.14-71.07,0-142.14c0-3.34.9-4.25,4.22-4.21,13.64.17,27.29.41,40.91-.11,5.8-.23,8.65,2.09,11.56,6.61,14.07,21.83,28.49,43.43,42.79,65.12Z" transform="translate(14.83 270.87)"></path><path class="cls-1" d="M379.27-189.76c0-23.76.07-47.52-.07-71.27,0-3.25.7-4.22,4.11-4.21q45.79.21,91.6,0c3.16,0,4.39.61,4.3,4.1-.25,10.18-.28,20.37,0,30.54.11,3.76-1.32,4.24-4.54,4.2-15-.14-29.94.07-44.91-.15-3.57-.05-4.65,1-4.33,4.42a60.79,60.79,0,0,1,0,9.73c-.21,2.79.82,3.45,3.52,3.42,12.59-.13,25.2.11,37.79-.16,3.85-.08,4.62,1.14,4.54,4.7-.25,10.18-.2,20.37,0,30.55.05,2.94-.86,3.77-3.77,3.74-12.6-.14-25.2,0-37.8-.12-3.08,0-4.64.4-4.28,4,.41,4.22-1.36,10,.81,12.37,2.49,2.76,8.34.82,12.73.86q18.22.18,36.46,0c2.84,0,3.82.67,3.77,3.66-.19,10.48-.21,21,0,31.43.06,3.13-1.14,3.62-3.87,3.61q-46.24-.11-92.49,0c-3.46,0-3.7-1.42-3.69-4.18.08-23.75,0-47.51,0-71.27Z" transform="translate(14.83 270.87)"></path><path class="cls-1" d="M372.56-114.31c-20.14,0-39.38,0-58.61,0-2.56,0-3.21-1.73-4.2-3.27q-12.36-19.15-24.67-38.32a13.38,13.38,0,0,0-1.17-1.41c-1.23,1.38-.59,2.89-.6,4.23-.06,11.66-.11,23.32,0,35,0,2.74-.5,3.86-3.6,3.83-15.41-.16-30.83-.07-47.41-.07,24.93-19.65,38.64-44.22,38.47-75.49S256.57-245.41,232-264.42c.45-.29.75-.67,1.05-.67,24.3.15,48.64-1.1,72.89.59,19.51,1.36,36.11,9.53,47.36,25.95,16.66,24.3,10.63,54.73-14,72.55-2.87,2.07-3.4,3.11-1,6.15,10.9,14,21.46,28.19,32.13,42.32C370.94-116.73,371.48-115.88,372.56-114.31Zm-89.28-92.58v6.17c0,10.88.73,11.47,11.57,9.51,12.12-2.18,17.64-15.38,10.5-25-3.79-5.14-14.06-8.14-20.65-6.18-1.7.5-1.4,1.64-1.41,2.75C283.26-215.42,283.28-211.16,283.28-206.89Z" transform="translate(14.83 270.87)"></path><path class="cls-1" d="M644.56-263.81l46.55,70.24c1.26-1.69.8-3.32.8-4.79,0-20.8.1-41.6,0-62.4,0-3.41.78-4.53,4.4-4.48,14.51.22,29,.15,43.56,0,2.79,0,3.85.63,3.85,3.67q-.13,71.69,0,143.39c0,2.79-.62,3.86-3.68,3.83-15.12-.16-30.23-.1-45.35,0a4.52,4.52,0,0,1-4.34-2.29q-22.59-34.93-45.3-69.76a7.2,7.2,0,0,1-1.22-4.15q0-36.47,0-72.95Z" transform="translate(14.83 270.87)"></path><path class="cls-2" d="M247.77-239.24c-2.45,1.37-5.17,2.37-6.84,4.83-1.33-.55-2.29.32-3.26.93a608.89,608.89,0,0,0-53.94,37.34c-17.43,13.71-35.14,27.12-48.84,44.85-1.83,2.37-2.42.22-3.09-.76a72.05,72.05,0,0,1-10.63-22.21c-1.07-4,0-6.19,3.26-8.39,11.38-7.72,22.76-15.43,34.38-22.81a395.51,395.51,0,0,1,66.17-34c2.7-1.07,5.75-1.27,8.14-3.14a23.51,23.51,0,0,0,9.42-2.85C244.52-243.57,246.56-241.76,247.77-239.24Z" transform="translate(14.83 270.87)"></path><path class="cls-1" d="M625.35-79.33c7.93-7.09,16.86-6.58,23.07,1.38,4.36-5.61,10.22-7.16,16.91-5.73,5.57,1.19,8.71,5,9.09,11.58.37,6.18.1,12.4.17,18.59,0,1.63-.46,2.33-2.25,2.4-2.24.08-2.29-1.14-2.27-2.76q.06-7.53,0-15.06c-.07-7.42-3.38-11.28-9.59-11.27S650.05-75.84,649.81-69c-.18,4.86,0,9.74-.06,14.61,0,1.47.67,3.28-2.12,3.32s-2.34-1.55-2.34-3.17c0-5.17.07-10.33,0-15.5-.1-6.41-3-9.84-8.55-10.4s-10,2.59-11.26,8.43c-1.26,5.67-.26,11.47-.58,17.2-.08,1.4.86,3.34-2,3.43s-2.44-1.79-2.44-3.5c0-8.26-.1-16.53.07-24.79,0-1.62-1.63-4.46,2.15-4.58S623.88-80.79,625.35-79.33Z" transform="translate(14.83 270.87)"></path><path class="cls-1" d="M690.84-79.09c9.84-6.69,19-6.59,24.65.19a17.12,17.12,0,0,1-.71,23.29c-6.46,6.47-14.86,6.28-24.09-1,0,5,0,9.42,0,13.86,0,1.64.67,3.64-2.38,3.54-2.81-.08-2.06-2-2.06-3.41q-.06-18.8,0-37.59c0-1.48-1-3.72,2.12-3.75s1.93,2.22,2.22,3.71C690.67-79.91,690.76-79.52,690.84-79.09Zm23.95,11.73c0-7.34-4.85-12.81-11.59-13s-12.49,5.62-12.54,12.7a12.3,12.3,0,0,0,12,12.63C709.66-54.87,714.74-60.07,714.79-67.36Z" transform="translate(14.83 270.87)"></path><path class="cls-1" d="M394.53-79c8.72-6.73,18.65-6.75,24.46-.24,5.48,6.14,5.48,17.18,0,23.16-6.26,6.82-15.17,6.84-24.53-.31,0,4.69.08,9,0,13.35,0,1.47,1.1,3.71-2.11,3.75-3,0-2.3-2-2.31-3.61q0-18.77,0-37.54c0-1.53-.89-3.68,2.26-3.6s1.77,2.32,2.12,3.76C394.44-80,394.45-79.67,394.53-79ZM418.6-67.49c0-7.42-5.27-13-12.27-12.85-6.7.09-11.9,5.69-11.91,12.83S399.58-54.95,406.53-55C413.64-55,418.59-60.17,418.6-67.49Z" transform="translate(14.83 270.87)"></path><path class="cls-1" d="M559.48-94.83a19.52,19.52,0,0,1,12.17,3.93c.89.69,3.18,1.1,1.6,3.24-1.4,1.9-2.5,1.4-4.23.16a19.06,19.06,0,0,0-22,.34,18,18,0,0,0-5.87,20.26c3.72,10.75,17.36,15.24,27.2,9,1.57-1,3.2-3.41,4.89-.34,1.52,2.78-1.53,3.12-2.8,4a23.21,23.21,0,0,1-27.28-1.81,21.85,21.85,0,0,1-6.52-24.79C539.92-89.63,548.49-95,559.48-94.83Z" transform="translate(14.83 270.87)"></path><path class="cls-1" d="M300.83-55c-6,4.74-12,5.76-18.44,2a8.27,8.27,0,0,1-4.35-8.1c.19-3.84,2.51-6.2,6-7.45,4.43-1.6,9.09-1.24,13.64-1,3.37.18,3.68-1.37,3.26-3.92-.71-4.31-4-6.86-9-6.8a15.12,15.12,0,0,0-9.18,2.82c-1.17.88-1.87,1.23-2.73-.26-.77-1.32-1.1-2.37.55-3.26,5.86-3.19,12-4.3,18.37-2,4.8,1.76,6.4,5.88,6.49,10.61.12,5.89.11,11.8,0,17.69,0,1.29,1.16,3.34-1.77,3.58S301.34-53,300.83-55Zm-7-11.25c-2.33.13-5-.3-7.59.77a4.79,4.79,0,0,0-3.3,4.28,5.31,5.31,0,0,0,2.48,5.3c4.37,2.8,11.83,1.13,14.67-3.23a7,7,0,0,0,.7-6.36c-.62-1.67-2.91-.5-4.43-.74A17.28,17.28,0,0,0,293.79-66.3Z" transform="translate(14.83 270.87)"></path><path class="cls-1" d="M748.44-55.09c-6.13,4.56-12,5.81-18.33,2.29a8.39,8.39,0,0,1-4.54-8.46c.28-4,2.66-6.45,6.42-7.6,4.49-1.37,9.13-.83,13.7-.77,2.48,0,3-.86,2.82-3.08-.41-4.37-3-7-7.81-7.53a15.34,15.34,0,0,0-10.55,2.63c-1.2.84-1.89,1.31-2.66-.27-.54-1.09-1.17-2.06.33-3a20.68,20.68,0,0,1,18.72-2.06c5.59,2.07,6.52,7.09,6.44,12.42-.07,5.16.08,10.33-.07,15.49,0,1.39,1.34,3.7-1.89,3.9C748.08-50.93,748.81-53.15,748.44-55.09Zm-7-11.23c-2.62.19-5.28-.29-7.86.72A5.17,5.17,0,0,0,730-61a5.22,5.22,0,0,0,2.38,4.91c4.42,3.24,13,1.21,15.52-3.62,2.16-4.22.82-6.55-3.77-6.55Z" transform="translate(14.83 270.87)"></path><path class="cls-1" d="M322.47-79.49c2.7-2.38,5.41-4.08,8.75-4.5,10.21-1.3,15.91,3.26,16.43,13.49.28,5.58,0,11.19.12,16.79,0,1.85-.52,2.63-2.52,2.59s-2.07-1.13-2.07-2.58c0-5.15.09-10.31,0-15.46-.15-7.48-3.33-11-9.73-11-6.68,0-11,4.13-11.25,11-.16,5-.08,10,0,15,0,1.79,0,3.1-2.5,3s-2-1.59-2-3c0-8.4-.09-16.8.09-25.19,0-1.54-1.59-4,1.52-4.65C322.91-84.64,321.26-81.26,322.47-79.49Z" transform="translate(14.83 270.87)"></path><path class="cls-1" d="M445.71-84.1c9.54.07,16.43,7,16.44,16.61a16.87,16.87,0,0,1-16.6,16.75,16.47,16.47,0,0,1-16.82-16.91C428.8-77.44,435.74-84.17,445.71-84.1ZM433.28-67.74A12.27,12.27,0,0,0,445.16-55c6.83.24,12.15-5.08,12.29-12.26s-5.27-13.12-12-13.07A12.52,12.52,0,0,0,433.28-67.74Z" transform="translate(14.83 270.87)"></path><path class="cls-1" d="M594.85-84.1c9.69-.05,16.48,6.62,16.59,16.31a16.46,16.46,0,0,1-16.58,17,16.36,16.36,0,0,1-16.58-16.58C578.24-77.41,584.8-84,594.85-84.1Zm-12,16.63c0,7.39,4.85,12.37,12.07,12.46,6.88.09,12.07-5.31,12.06-12.53S601.69-80.33,595-80.34C587.92-80.36,582.79-75,582.82-67.47Z" transform="translate(14.83 270.87)"></path><path class="cls-1" d="M769.61-78.93a15.35,15.35,0,0,1,12.7-5.18c7.15.28,11.81,4.13,12.33,11.3.47,6.45.15,13,.28,19.44,0,1.77-.69,2.23-2.35,2.25s-2.26-.79-2.25-2.4q.07-7.95,0-15.91c-.07-6.73-2.91-10.23-8.63-10.73-6.16-.54-11.15,3.06-11.85,9.34-.6,5.39-.34,10.88-.41,16.33,0,1.83.2,3.5-2.63,3.38S764.7-53,764.7-54.5c0-8.25-.11-16.5,0-24.75,0-1.66-1.56-4.49,2.06-4.7C770.69-84.17,768.38-81,769.61-78.93Z" transform="translate(14.83 270.87)"></path><path class="cls-1" d="M369.22-84.12a21.72,21.72,0,0,1,9.5,1.87c1.22.53,2,1.13,1.23,2.65s-1.34,1.88-3,1a15.88,15.88,0,0,0-12.06-1.17A4.94,4.94,0,0,0,361-75c-.11,2.4,1.44,3.82,3.63,4.39,3.43.9,6.9,1.6,10.34,2.47,3.73.95,6.55,3,6.86,7.09s-1.93,6.94-5.66,8.61c-6.65,3-13,1.54-19.22-1.34-1.4-.65-2-1.42-1.07-3.09s1.94-1.25,3.23-.61c4.35,2.17,8.88,3.18,13.74,2,2.55-.62,4.47-1.94,4.49-4.7s-2.08-3.75-4.34-4.31c-2.73-.67-5.51-1.13-8.24-1.77-6.47-1.54-9-4.31-8.56-9.34.37-4.36,4.42-7.8,9.95-8.4C367.14-84.08,368.18-84.07,369.22-84.12Z" transform="translate(14.83 270.87)"></path><path class="cls-1" d="M236-70.54c0,5.46,0,10.91,0,16.37,0,1.73.12,3.09-2.42,3.08-2.71,0-2.25-1.68-2.25-3.23,0-10.77-.14-21.53.06-32.29.06-3.17-.91-4.15-4-3.91s-5.92,0-8.88,0c-1.45,0-2.64-.08-2.72-2s.94-2.14,2.48-2.14q15.1,0,30.21,0c1.41,0,2.62,0,2.6,2s-1,2.19-2.55,2.14a13.22,13.22,0,0,0-1.78,0c-3.48.3-8.1-1.57-10.13.82-1.72,2-.59,6.45-.65,9.81C236-76.73,236-73.64,236-70.54Z" transform="translate(14.83 270.87)"></path><path class="cls-1" d="M497.58-68.73c0-2.06,0-4.13,0-6.19.06-2.92.7-6.19-4.18-5.36-1.39.23-1.63-.93-1.62-2.06s.57-1.78,1.62-1.59c4.21.78,4.59-1.6,4.18-4.79-.22-1.65.47-2.31,2.25-2.32s2.49.79,2.19,2.37c-.87,4.46,1.53,5.2,5.16,4.73a26.4,26.4,0,0,1,2.67,0c1.18,0,2,.21,2,1.65s-.49,1.94-2,2.15c-2.58.35-6.12-1.66-7.54,1.31-1,2.18-.24,5.22-.25,7.87,0,3.1,0,6.2,0,9.3.09,5.81,2.76,7.84,8.22,6.19,1.44-.44,2.68-1.31,3.42.92.68,2-.94,2.13-2,2.66-6.89,3.38-13.85-.77-14.08-8.41C497.51-63.12,497.58-65.92,497.58-68.73Z" transform="translate(14.83 270.87)"></path><path class="cls-1" d="M261.16-78.62c2.72-3.31,5.55-5,9.11-5.35,1.29-.12,2.76-.49,2.86,1.66.07,1.62-.49,2.22-2.18,2.57-6.92,1.45-9.63,4.79-9.8,11.92-.12,4.72,0,9.45,0,14.17,0,1.45,0,2.54-2.05,2.53s-2.49-.79-2.48-2.63c.07-9,0-18,0-27,0-1.59-.44-3.28,2.26-3.26,2.86,0,1.88,2,2.06,3.39C261-80.2,261.05-79.77,261.16-78.62Z" transform="translate(14.83 270.87)"></path><path class="cls-1" d="M475.61-79c2.62-2.81,5.46-4.8,9.17-5,1.17,0,2.8-.78,3,1.46.14,1.79-.34,2.82-2.37,2.73-6.16-.26-9.8,5.65-9.91,11.35-.1,4.85-.08,9.71-.05,14.56,0,1.59,0,2.82-2.24,2.78S471-52.36,471-53.95c0-8.83,0-17.66,0-26.49,0-1.59-.76-3.64,2.32-3.58,2.88.07,1.78,2,2,3.4C475.41-80.21,475.47-79.81,475.61-79Z" transform="translate(14.83 270.87)"></path><path class="cls-2" d="M120.33-193.27c-.08-7.62,1.75-13.9,4-20.1a2.89,2.89,0,0,1,2-1.65c13.89-4.73,27.92-8.81,42.66-9.89a12.94,12.94,0,0,1,2.21.44C152.12-216.95,136.79-205,120.33-193.27Z" transform="translate(14.83 270.87)"></path></svg>