<svg xmlns="http://www.w3.org/2000/svg" id="Layer_1" data-name="Layer 1" viewBox="0 0 830 302.09"><defs><style>.cls-1{fill:#f0750a;}.cls-2{fill:#f08009;}.cls-3{fill:#ee6b0d;}.cls-4{fill:#f28e0d;}.cls-5{fill:#e93d19;}.cls-6{fill:#f29a10;}.cls-7{fill:#f2a51b;}.cls-8{fill:#2e2e2e;}.cls-9{fill:#2a2829;}.cls-10{fill:#eb2c12;}.cls-11{fill:#ef770c;}.cls-12{fill:#333232;}.cls-13{fill:#e5511d;}.cls-14{fill:#e46d22;}</style></defs><path class="cls-1" d="M87.36,788.11c-2.82-11-3.25-22.16-3.06-33.4a12.3,12.3,0,0,1,2.42.8c-1.07,8.56,5.15,7.47,10.26,7.86a6.47,6.47,0,0,1,2.18.36c3.11,1.42,5.5,1.61,9-.52,3-1.85,7.47-2,11.76-1.4,6.35.89,12.4,3.62,19,3,2.64-.25,3.82-.79,4.22-3.71a198,198,0,0,0,2.08-23.05l1.09-.06A220.87,220.87,0,0,1,145,779.2c-2.05.29-1.79,1.9-2.06,3.35-1.12,5.87-1,12.11-4.79,17.23-1.51,2.07-3.37,3.87-3,6.84.22,1.78-.51,3.54-2.64,3.45s-1.57-2.07-1.74-3.44.55-3.39-1.42-3.72c-2.54-.42-2.85,1.7-3.13,3.6-.18,1.16-.71,2.14-2,2.3a1.81,1.81,0,0,1-2-1.5c-.8-4.19-4-3.41-6.92-3.68-5.13-.48-10.47-.62-15.26-2.26-2.22-.75-3.19-2.4-5.14.17-1.27,1.68-3.42.72-2.83-.95C94,794.88,88.32,792.44,87.36,788.11Z" transform="translate(-11 -646.82)"></path><path class="cls-2" d="M145.21,738.05a198,198,0,0,1-2.08,23.05c-.4,2.92-1.58,3.46-4.22,3.71-6.62.62-12.67-2.11-19-3-4.29-.6-8.74-.45-11.76,1.4-3.47,2.13-5.86,1.94-9,.52a6.47,6.47,0,0,0-2.18-.36c-5.11-.39-11.33.7-10.26-7.86a12.3,12.3,0,0,0-2.42-.8,83.68,83.68,0,0,1,.13-17.83c2-.36,1.72-1.92,1.75-3.31.24-3,.61-6.3,4.41-6.58,6.68-.5,13.37-1.57,20.09.36a31.35,31.35,0,0,0,14.76.23c6.81-1.35,12.09.43,16.48,5.63C143.2,734.72,142.87,737.29,145.21,738.05Z" transform="translate(-11 -646.82)"></path><path class="cls-3" d="M87.36,788.11c1,4.33,6.66,6.77,4.63,12.48-.59,1.67,1.56,2.63,2.83.95,2-2.57,2.92-.92,5.14-.17,4.79,1.64,10.13,1.78,15.26,2.26,2.92.27,6.12-.51,6.92,3.68a1.81,1.81,0,0,0,2,1.5c1.29-.16,1.82-1.14,2-2.3.28-1.9.59-4,3.13-3.6,2,.33,1.25,2.34,1.42,3.72s-.42,3.34,1.74,3.44,2.86-1.67,2.64-3.45c-.36-3,1.5-4.77,3-6.84,3.77-5.12,3.67-11.36,4.79-17.23.27-1.45,0-3.06,2.06-3.35-1.43,14.91-5.91,29.12-9.9,43.44-1.6,1.6-4.26,2.9-1.66,5.72a.65.65,0,0,1-.3.87c-2.49,3.41-3.6,7.28-4.84,11.32-1.93,6.26-1.67,13-5.49,19-1.86,2.91-5.31,5.17-5.46,9.28-.08,2,1.32,5-1.56,5.8-3.22.89-3.81-2.86-5.63-4.44a5.85,5.85,0,0,1-1.48-2.93c-2-8-3.73-16.06-5.83-24-1.27-4.8-.25-10.55-5.32-13.91C93.07,815.84,89.13,802.24,87.36,788.11Z" transform="translate(-11 -646.82)"></path><path class="cls-4" d="M145.21,738.05c-2.34-.76-2-3.33-3.29-4.84-4.39-5.2-9.67-7-16.48-5.63a31.35,31.35,0,0,1-14.76-.23c-6.72-1.93-13.41-.86-20.09-.36-3.8.28-4.17,3.55-4.41,6.58l-1.59,0c-.22-11.24,1.16-22.33,3.08-33.37,2.85,1.31,7.36-1.21,8.67,4,.22.85,2.8.39,3.15-1.61.5-2.88,2.13-2.38,4.07-1.54,1.33.57,2.87,1.38,4.17,1.18,5.72-.91,11.27,1,16.81.91,4.75-.11,11.26,4.62,14.57-5,.47,7.32,2.12,5,3.82,2.07A195,195,0,0,1,146.3,738Z" transform="translate(-11 -646.82)"></path><path class="cls-5" d="M80.36,941.82c-1.07-8.1-.19-16.24-.45-24.35-.08-2.49,1.33-3.05,3.54-3q32,.09,63.89,0c2.66,0,3.57,1,3.54,3.57q-.12,13.61,0,27.21c0,2.63-1,3.67-3.54,3.67q-32.22-.06-64.44,0c-1.82,0-3.49-.26-2.59-2.82a7.75,7.75,0,0,0,2.56,1q31.4.15,62.79.19c1.79,0,2.84-.8,2.8-2.65-.09-5,.34-10.09-1.89-14.59-2.3-.18-2.27,3-4.49,2.14s.1-3.09-.72-3.94c-12.58,3.77-25,3-37.37,1.32-6.28-.84-12.35-.14-18.47.79-3,.45-3.6,2.74-3.84,5.32C81.52,937.74,82.61,940.17,80.36,941.82Z" transform="translate(-11 -646.82)"></path><path class="cls-6" d="M83.73,683.43l-1,5.61c-.15.09-.42.19-.41.26a4.24,4.24,0,0,0,.24.82q-2.14,16.14-4.27,32.29c-3.51-.66-1-2.88-1-4.32,0-3.08.24-5.35-4.19-6.12-3.21-.55-6.16,0-9.16,0-5.94,0-13.19-2-15.57,6.72,0,.19-.66.22-1,.33,1.46-13.78,5.16-26.87,12.07-39l1-1.56a.44.44,0,0,1,.29-.64c4.16-.94,4.14-4.33,4.43-7.54l.11-.23c.27-.42.55-.84.82-1.27l0,0c2.87.61,4.43-1.37,6.09-3.1,2.32-2.4,4.36-3.78,5.76.83.38,1.27.92,3.33,2.8,2.79s.85-2.54,1-3.9a3.78,3.78,0,0,0-.2-2.18c-2.73-4.6,1.86-7,3.13-10.35.32-.87,1.64-.75,2.52-.44a1.25,1.25,0,0,1,.73,1.79c-.74,1.8,1.33,4.58-2.08,5.47-1.58.42-1.53,1.66-1.07,3.13,1.83,5.92-.47,11.41-2.21,16.87C81.91,681.7,82.32,682.55,83.73,683.43Z" transform="translate(-11 -646.82)"></path><path class="cls-7" d="M91.83,679c1.52-10.32,5.28-19.93,9.19-29.49.87-2.12,2.43-2.51,4.42-2.5,5.73,0,11.48.2,17.19-.18,4.6-.31,7.14,1.44,8.53,5.75,3.16,9.82,7.27,19.36,8.38,29.75-2.58-1.4-6-1.5-8.23-1.37-4.37.25-8.25-4.93-12.69-1-.34.3-1.44-.11-2.12-.35-3.33-1.2-6.53-.67-9.77.44-1.35.47-2.93,1.74-4.2.73C99.21,678.22,95.45,679.22,91.83,679Z" transform="translate(-11 -646.82)"></path><path class="cls-8" d="M831.59,802.48c0-7.71.12-15.41-.06-23.11-.08-3.32.38-5,4.43-4.92s4.89,1.41,4.82,5.13c-.23,11.86,0,23.72-.18,35.57,0,1.93,1.61,5.1-1.56,5.65s-6.76,1.2-9.19-2.91c-4.51-7.65-9.6-15-14.52-22.36-.64-1-.94-2.47-3.1-2.61,0,7.94-.25,15.82.1,23.67.19,4-1.55,4.42-4.86,4.51-3.52.1-4.32-1.12-4.26-4.47.2-12.23,0-24.46.15-36.69,0-1.75-1.4-4.73,1.46-5.09s6.42-1.56,8.83,2.39c5.3,8.65,11.05,17,16.62,25.53Z" transform="translate(-11 -646.82)"></path><path class="cls-9" d="M341,791.32c0,9.38-.14,17.12.06,24.84.09,3.35-.42,5-4.4,5C333,821.05,332,820,332,816.37c.24-12,0-24.08.17-36.12,0-1.84-1.71-5,1.7-5.46,3-.39,6.34-1.15,8.69,2.77a242.91,242.91,0,0,0,17.71,25.57c0-7.76.11-15.53-.05-23.29-.07-3.33-.05-5.55,4.52-5.37,3.71.15,4.61,1.21,4.55,4.75-.2,12.23,0,24.46-.15,36.68,0,1.69,1.56,4.66-1.7,4.91-2.88.22-6.17,1.41-8.44-2.23-5-8-10.26-15.85-15.43-23.74C343.13,794.09,342.55,793.41,341,791.32Z" transform="translate(-11 -646.82)"></path><path class="cls-9" d="M735.45,798.13a23.9,23.9,0,0,1-24,24c-13.81.07-24.35-10.76-24.27-25a24.28,24.28,0,0,1,24.3-23.87C724.67,773.29,735.47,784.46,735.45,798.13Zm-39.25-.45c-.1,8.88,6.33,15.71,15,15.9,8.38.18,15.25-6.83,15.29-15.61s-6.52-15.74-15.05-15.82C702.71,782.07,696.29,788.61,696.2,797.68Z" transform="translate(-11 -646.82)"></path><path class="cls-10" d="M80.36,941.82c2.25-1.65,1.16-4.08,1.36-6.18.24-2.58.88-4.87,3.84-5.32,6.12-.93,12.19-1.63,18.47-.79,12.36,1.65,24.79,2.45,37.37-1.32.82.85-1.51,3,.72,3.94s2.19-2.32,4.49-2.14c2.23,4.5,1.8,9.59,1.89,14.59,0,1.85-1,2.65-2.8,2.65q-31.39-.07-62.79-.19a7.75,7.75,0,0,1-2.56-1C80.35,944.64,80.35,943.23,80.36,941.82Z" transform="translate(-11 -646.82)"></path><path class="cls-9" d="M744.16,797.57a24.19,24.19,0,0,1,24.46-24.22c13,0,23.66,11,23.71,24.44,0,13.8-10.57,24.5-24.19,24.39S744.17,811.5,744.16,797.57Zm39.13,0c-.07-8.86-6.7-15.53-15.32-15.42S753.06,789,753.09,798a15.4,15.4,0,0,0,15.35,15.55C776.94,813.52,783.36,806.6,783.29,797.6Z" transform="translate(-11 -646.82)"></path><path class="cls-6" d="M91.83,679c3.62.2,7.38-.8,10.7,1.8,1.27,1,2.85-.26,4.2-.73,3.24-1.11,6.44-1.64,9.77-.44.68.24,1.78.65,2.12.35,4.44-4,8.32,1.23,12.69,1,2.21-.13,5.65,0,8.23,1.37.09.58.18,1.15.28,1.73l.6,1.55a22.61,22.61,0,0,1,1.44,9c-1.49,1.86-2,3.51.93,4.45l.14,1.13c-1.7,2.89-3.35,5.25-3.82-2.07-3.31,9.65-9.82,4.92-14.57,5-5.54.13-11.09-1.82-16.81-.91-1.3.2-2.84-.61-4.17-1.18-1.94-.84-3.57-1.34-4.07,1.54-.35,2-2.93,2.46-3.15,1.61-1.31-5.22-5.82-2.7-8.67-4a3.89,3.89,0,0,1,.75-3.35c4-2,2.16-5.48,2-8.5-1.1-1.31-.19-2.52.19-3.76.15-.08.43-.18.42-.25a3.46,3.46,0,0,0-.23-.82C91.18,682,91.51,680.51,91.83,679Z" transform="translate(-11 -646.82)"></path><path class="cls-11" d="M77.2,757c1.16,17.2,3.84,34.19,6.69,51.17a30.41,30.41,0,0,1-6.63-7.32c-1.57-2.54-6.13-2.77-6.16-.38-.06,4.73-4,3.86-6.09,5.52-1.7-3.72-2.36-8.15-6.75-10.06l-.22-.21.11-.28c.15-1.14.14-2.21-1.13-2.77l.07.11A2,2,0,0,0,56,790.3l-.08-.44c-.25-.59-.49-1.17-.74-1.75-.63-1-1.48-2-1.21-3.38.48-.47,1.39-1,1.34-1.39-.15-1.18-1.3-.7-2.07-.84l-.69-2.68c-.23-.56-.45-1.12-.67-1.68-2.06-6.16-3.82-12.39-4-18.95,4.33,4.14,8.09,5.21,14.27,1.79,2.9-1.6,8.11-5.64,13.15-2.3C75.44,758.8,76.53,757.56,77.2,757Z" transform="translate(-11 -646.82)"></path><path class="cls-6" d="M174.37,671.21a.64.64,0,0,1-.35-.77c.48-1.93-.66-3.6-.85-5.41s.81-3.43,2.48-2.22c2.83,2,7.11,3,8.61,5.31,4,6.12,10.47,7.63,16.13,10.71a2.35,2.35,0,0,1,1.8,1.9c.11,3,1.28,5.25,4.47,6l.91,1.23c0,1,.25,1.81,1.34,2.09l0-.08c-.59,3.31,1.33,5.24,3.78,6.89a7.08,7.08,0,0,1,1.83,4.92c.59,4.08,1,8.2,3.37,11.77l.57,2.22a4.43,4.43,0,0,0-.89,0c-2.62-.68-5.24-1.91-7.87-1.93-6.26-.05-12.52.47-18.78.77-.25-2.48-.33-5-2.61-6.69-.51-2.27-1-4.53-1.54-6.8,1.3-2.74.11-4.76-1.89-6.56a7.5,7.5,0,0,1-1.47-4.49c.1-.14.31-.34.28-.39A6.28,6.28,0,0,0,183,689a.36.36,0,0,1-.15-.59l-.81-1.62a.59.59,0,0,1-.29-.75C182.8,679.38,178.75,675.21,174.37,671.21Z" transform="translate(-11 -646.82)"></path><path class="cls-2" d="M184.23,730.18c1.51,10.21.2,20.29-1.52,30.35-1.93.24-4.79-4.35-5.8,1.1,0,.19-1.27.13-1.94.22a57.06,57.06,0,0,0-11.64,2.39c-2.75,1-6.07,3.26-9.27.47,0-1.14.29-2.34-.77-3.22q0-15.11,0-30.23c.11-.11.34-.26.31-.31a4.55,4.55,0,0,0-.42-.69c-.3-3-.59-5.94-.89-8.92,1,.25,1.91.76,1.74,1.81-1,6.33,3,6,7.36,6C169,729.26,176.61,729.82,184.23,730.18Z" transform="translate(-11 -646.82)"></path><path class="cls-9" d="M558.17,795.22c7.09,5.48,9.08,10.52,6.88,16.82-2.08,6-6.87,8.82-15.06,9-13.23.2-13.23.2-13.24-13.12,0-9.81.08-19.62,0-29.43,0-2.8.66-4.09,3.7-3.85,3.31.26,6.68-.1,10,.24,5,.53,9.25,2.64,11.35,7.64S562,791.45,558.17,795.22Zm-12.86,11.57c1.2,1.87-2,6.18,3.33,5.78,3.87-.29,8.3-.12,8.47-5.73.12-3.65-3.7-6.2-8.45-6.22C543.52,800.6,546.3,804.53,545.31,806.79Zm.05-19.14c.82,1.82-1.56,5.32,2.9,5,3-.2,5.47-1.31,5.57-4.78.11-3.93-2.76-4.88-5.87-5C543.93,782.67,546.15,786,545.36,787.65Z" transform="translate(-11 -646.82)"></path><path class="cls-9" d="M412.42,820.47c-6.1,1.31-10.46,1-12.74-5.5-1.53-4.37-4.34-8.3-7.8-12.1,0,4.91-.17,9.83.06,14.73.16,3.37-1.65,3.6-4.15,3.38-2.22-.21-4.86.84-4.8-3.31.21-13.16.13-26.33,0-39.5,0-2.56.64-3.74,3.41-3.58,4.08.22,8.18,0,12.24.27,5.74.44,9.68,3.44,11.3,9.1,1.7,5.94.11,11.58-4.92,14.69-2.82,1.73-2.84,3-1.4,5.54C406.65,809.43,409.4,814.82,412.42,820.47ZM394.63,783c-3.71-.43-2.74,2.57-2.83,4.77-.1,2.54-.6,5.33,3.59,4.93,3.3-.31,6.55-.65,6.4-5S398.11,783.41,394.63,783Z" transform="translate(-11 -646.82)"></path><path class="cls-9" d="M596.05,774.59c3.09-.89,4.56,1,5.77,4.28,4.62,12.48,9.56,24.84,14.21,37.31.51,1.36,3,3.85.25,4.47s-6.28,2.05-8.4-1.69c-1.4-2.47-.88-6.83-4.14-7.24-5.46-.71-11.09-.35-16.62,0-2.11.13-2.45,2.78-2.75,4.42-.9,5.08-4.34,5.06-8.26,4.87-2.61-.12-2.65-1.13-1.87-3.13,5.33-13.59,10.67-27.18,15.81-40.85C591.18,774,593.35,774.75,596.05,774.59Zm5.7,28.06c-2.1-5.25-3.93-9.85-6.2-15.54-2.28,5.86-4.09,10.53-6,15.54Z" transform="translate(-11 -646.82)"></path><path class="cls-9" d="M319,793c0,5.37.33,10.77-.08,16.11-.6,7.74-6.62,12.84-14.71,13.08s-14.76-4.29-15.74-11.85c-1.43-11-.4-22.21-.53-33.32,0-3.82,3.19-2,5.05-2.33,2.23-.37,3.9,0,3.84,3.07-.15,9.08,0,18.16-.07,27.24,0,3.11.45,6,3.39,7.71,4.49,2.65,9.85-.59,10-6.25.17-9.08.2-18.17,0-27.25-.1-3.62.89-4.79,4.63-4.71,3.51.07,4.95.82,4.67,4.6-.33,4.61-.08,9.27-.08,13.9Z" transform="translate(-11 -646.82)"></path><path class="cls-11" d="M154.06,764.71c3.2,2.79,6.52.52,9.27-.47A57.06,57.06,0,0,1,175,761.85c.67-.09,1.91,0,1.94-.22,1-5.45,3.87-.86,5.8-1.1C179.84,772.9,178.14,785.61,172,797l-3.42,1.1a11,11,0,0,1-7.91-.85c-1.39-.75-2.49-3.1-4.08-2.24-3.52,1.92-4.83-.92-6.82-2.47q1.4-10.71,2.81-21.41c.07-.43.15-.87.23-1.31.09-1.73.18-3.45.28-5.17C153.44,764.71,153.75,764.72,154.06,764.71Z" transform="translate(-11 -646.82)"></path><path class="cls-9" d="M491.91,774.62c2.59,0,5.2.14,7.78,0,3.18-.2,5.08.14,5.1,4.29s-2,4.42-5.14,4.23c-2.21-.14-4.45.08-6.67,0-3-.16-5.13-.13-5.05,4.18.08,4,1.56,4.66,4.89,4.34,2.21-.2,4.46.15,6.67-.05,3.55-.33,5.33.38,5.29,4.67,0,4.47-2.49,4.12-5.37,4a49,49,0,0,1-5,0c-4.83-.68-6.53.81-6.52,6.12s1.69,6.77,6.52,6.12c2-.27,4.1.18,6.11-.09,3.81-.52,4.11,1.55,4.2,4.58s-.84,4.26-4.07,4.13c-5.92-.23-11.87-.2-17.8,0-3,.09-3.72-1-3.69-3.85.15-12.6.23-25.21,0-37.81-.08-4,1.2-5.23,5-4.8A72,72,0,0,0,491.91,774.62Z" transform="translate(-11 -646.82)"></path><path class="cls-12" d="M380.84,866,364,899.7c-5.78-11.56-11-22.05-17.06-34.09-1.35,9.32-2.45,17-3.57,24.73-.32,2.2-.69,4.39-1,6.58-.26,1.87-1.64,1.73-2.93,1.62-1.5-.14-1.65-1.22-1.47-2.42l6.54-45.5c6.91,13.88,13.07,26.23,19.51,39.15l19.34-39.08c2.32,16.08,4.41,30.53,6.5,45,.19,1.32.45,2.61-1.49,2.91-2.24.36-2.85-.81-3.12-2.76-1.23-8.79-2.54-17.57-3.83-26.35C381.36,868.81,381.22,868.16,380.84,866Z" transform="translate(-11 -646.82)"></path><path class="cls-2" d="M77.2,757c-.67.61-1.76,1.85-1.93,1.73-5-3.34-10.25.7-13.15,2.3-6.18,3.42-9.94,2.35-14.27-1.79l-.36-2.34a9.58,9.58,0,0,0-.18-8.91c-.27-1.44.4-3.09-1-4.28q0-6.15.07-12.3l1.92-.05c3.27.29,6.65-.67,9.79,1,3.32,1.78,6.71,1.61,10.15.31,3.2-1.21,6.42-2.35,9.63-3.52-.06.75-.13,1.49-.19,2.24-3,1.66.51,3.74-.36,5.54,0,1.5-.11,3-.17,4.49a19.25,19.25,0,0,0,0,13.28Z" transform="translate(-11 -646.82)"></path><path class="cls-2" d="M14.27,750.26c-1.22-7-3.37-13.92-2.64-21.17l.54,0,.53,0c3.9-.43,6.24,4.41,10.22,3.24,5.08-1.5,10.21-.83,15.33-1,.81,5.53-1.49,11.3,1.33,16.67a9.59,9.59,0,0,1,.63,5.57c-4.1,1.78.34,4.56-.78,6.68-3,1.18-3.47,5.84-7.4,5.44-3.47-.36-6.31,1.21-9.32,2.35-1.88-1-1.49-4.14-4.13-4.46a4.61,4.61,0,0,1-1.23-3.42c1.11-2.3.08-4-1.59-5.48l-.66-2.3C16.51,751,15.59,750.57,14.27,750.26Z" transform="translate(-11 -646.82)"></path><path class="cls-6" d="M45.19,696.21c-.12.59-.23,1.18-.34,1.77a2.25,2.25,0,0,0-.8,2.56c-.16.62-.32,1.23-.49,1.84a4,4,0,0,0-.85,0c-4.29-.17-8.58-.36-10.14,5-.38,1.29-1.14,1-2.08.48-5-2.63-10.3-3-15.79-2.28.69-4.43,2.66-8.33,4.89-12.14l.81-1.39a.71.71,0,0,1,.36-.85c2.75-.31,3.19-2.2,3.06-4.47h0l1-1.26-.06,0c2,0,2.43-1.1,2.11-2.8.38-.52.75-1,1.13-1.55,1.61,0,2.51-.67,2.34-2.39l0,0c4,.32,6.32-1.12,5.63-5.57l0,0c3.38.61,5.24-2.15,7.75-3.48,4.84-2.56,9.16-6.22,15.5-7.94-1.72,3.28-2.68,5.55-4.5,7.71-3.39,4-4.58,9.23-5,14.5-.17.52-.35,1-.53,1.57C45.13,688.17,45.1,692.17,45.19,696.21Z" transform="translate(-11 -646.82)"></path><path class="cls-11" d="M214.6,755.86c-1.89,10.73-7.63,19.88-12.37,29.38a177.48,177.48,0,0,1-16.36,26.44c-1.46-.34-2.68.32-3.92.91-4.87-1.34-2.15-6.93-5.2-9.29a2.07,2.07,0,0,1,.15-.25l.94.09-.72-.64a187.92,187.92,0,0,0,14-56.74l.45,0,.45-.06c1.62,1.79.63,3.73.53,5.72-.34,6.4-2.25,12.75-1.38,19.64,2.58-1.15,4-1.85,6.59-.91,4.11,1.51,9,3,11.29-4C210.23,762.66,211.43,758.56,214.6,755.86Z" transform="translate(-11 -646.82)"></path><path class="cls-13" d="M115.34,908.21c-9.65,0-19.3-.12-28.94.07-4,.07-5.2-.74-4-5,1.48-5.46,3.84-7.63,10-7.42,16.12.56,32.27.17,48.41.19,4.23,0,9.35,6.59,8.28,10.7-.61,2.36-2.72,1.46-4.2,1.47C135,908.25,125.17,908.21,115.34,908.21Z" transform="translate(-11 -646.82)"></path><path class="cls-4" d="M184.23,730.18c-7.62-.36-15.24-.92-22.86-1-4.35,0-8.36.3-7.36-6,.17-1-.78-1.56-1.74-1.81q-1-9.47-2-18.93c2.53-.8,5.05-2.28,7,1.22.75,1.32,2.74,1.32,4.09.84,6-2.1,11.3-1.52,15.07,4.43,2.27-3.15-.58-7,2.84-9.08A91.68,91.68,0,0,1,184.23,730.18Z" transform="translate(-11 -646.82)"></path><path class="cls-9" d="M277.14,809.24c-.05,6.71-4.53,11.57-11.63,12.61s-15-2.88-16.8-8.18c-.71-2.17.79-2.82,2.06-3.18,1.85-.53,3.08-4,5.64-1.39a28.62,28.62,0,0,0,3,3.19c2.5,1.81,5.3,2.14,7.59-.18,2.6-2.64,1.08-5.19-1.06-7.22-3.35-3.19-7-6.06-10.31-9.29-6.67-6.53-7.32-13.12-2-18.43,5.45-5.48,14.39-5,20.36,1.12,1.31,1.34,3.06,2.85.38,4.28-1.89,1-2.67,5.21-6.1,2.35a18.81,18.81,0,0,0-3.58-2.52,3.9,3.9,0,0,0-5,.93c-1.62,1.93-.44,3.43,1,4.74,3.58,3.22,7.21,6.37,10.79,9.59S277.2,804.42,277.14,809.24Z" transform="translate(-11 -646.82)"></path><path class="cls-9" d="M453.8,822.14a15,15,0,0,1-11.12-4.72c-4.07-4.44-3.82-5.62,1.38-8.4,1.86-1,2.9-1,4,.84a7.79,7.79,0,0,0,4.78,3.59,5,5,0,0,0,5.9-2,4.16,4.16,0,0,0-.82-5.56c-2.42-2.29-5-4.46-7.4-6.73A77.18,77.18,0,0,1,445,793.7c-4.21-4.77-4.81-10.32-1.78-14.75a13.24,13.24,0,0,1,15.8-4.61,17.12,17.12,0,0,1,5.09,3.29c1.19,1.13,4.46,2.29,1.76,4.49-1.86,1.51-3.41,6.46-7.29,2.07a9.14,9.14,0,0,0-3.29-2,3.64,3.64,0,0,0-4.5,1.18c-1.25,1.59-.57,3.17.78,4.42,4.22,3.89,8.7,7.52,12.65,11.66,5.54,5.8,5.41,13.74.16,18.9C461.5,821.18,457.93,821.93,453.8,822.14Z" transform="translate(-11 -646.82)"></path><path class="cls-2" d="M214.6,755.86c-3.17,2.7-4.37,6.8-5.51,10.29-2.29,7-7.18,5.54-11.29,4-2.57-.94-4-.24-6.59.91-.87-6.89,1-13.24,1.38-19.64.1-2,1.09-3.93-.53-5.71,0-1.13.08-2.26.13-3.39a2.83,2.83,0,0,0,0-4.23c0-1.49-.05-3-.07-4.48,3.13.49,5.68,5.5,9.47,1.2a1.63,1.63,0,0,1,1.54.18c2.66,3.24,7.15-.57,10,2.65.67.77,2.06-.24,2.2-1.58s.71-2.44,2.32-2.51l.39,6.2c.2,4-.87,7.87-2,11.68l-.36,1.45A3.81,3.81,0,0,1,214.6,755.86Z" transform="translate(-11 -646.82)"></path><path class="cls-4" d="M14.7,705.65c5.49-.77,10.81-.35,15.79,2.28.94.5,1.7.81,2.08-.48,1.56-5.38,5.85-5.19,10.14-5,.1.42.21.85.31,1.27v-.08c-3.71,1.92-3,4.7-1.47,7.62-.15.76-.3,1.53-.44,2.29-2.17.8-2.14,1.94-.52,3.33-.08,1.13-.16,2.25-.23,3.37l-.89,1.14c-1.24,3.23-1.22,6.61-1.22,10-5.12.14-10.25-.53-15.33,1-4,1.17-6.32-3.67-10.22-3.24-.28-1.85.72-3.94-1-5.51-.17-3.43-.29-6.86,1.25-10.08,3.22-1.33,2.4-3.37,1-5.52A2.07,2.07,0,0,1,14.7,705.65Z" transform="translate(-11 -646.82)"></path><path class="cls-8" d="M508.1,877.42,524,897.93c-3.49,1.32-5.61.53-7.53-2.06-3.95-5.35-8.11-10.56-12.23-15.78-1-1.24-1.74-3.39-3.69-2.83-2.54.73-1.1,3.14-1.18,4.74-.21,4.25-.05,8.51-.09,12.76,0,1.75.64,3.89-2.44,3.83-2.67-.05-2.24-1.89-2.24-3.5,0-13.32,0-26.64,0-40,0-2.24.51-3.49,3.05-3.36,5,.25,10,0,15,.6,7,.81,10.91,5.16,11.16,11.62s-3.39,10.76-10.33,12.37C511.79,876.72,510.2,877,508.1,877.42Zm-8.88-13.21c0,8.22,0,8.22,6.57,8.3,8.54.09,12.78-2.54,12.87-8,.1-5.81-3.79-7.55-13.71-8.26C497.55,855.74,499.39,860.34,499.22,864.21Z" transform="translate(-11 -646.82)"></path><path class="cls-6" d="M179.26,699.82c-3.42,2.06-.57,5.93-2.84,9.08-3.77-5.95-9-6.53-15.07-4.43-1.35.48-3.34.48-4.09-.84-2-3.5-4.48-2-7-1.22l-.72-6.47a2.31,2.31,0,0,0-.62-2.36c-.19-1.3-.39-2.61-.58-3.92l-.5-1.67c-.07-.78-.14-1.56-.22-2.34.13-.11.37-.29.35-.34a6.76,6.76,0,0,0-.51-.72c-.12-.87-.23-1.74-.35-2.61.79-1.51-.7-4.3,1.78-4.61a3.62,3.62,0,0,1,4.32,3.26c.26,1.78,1.39,1,2.32.23,4.66-4,10.21-.75,15.23-1.84a8.11,8.11,0,0,1,2.5,6l1,1.81.1.44c.32.58.65,1.15,1,1.72C177.55,692.27,178.36,696.06,179.26,699.82Z" transform="translate(-11 -646.82)"></path><path class="cls-8" d="M466.24,877.38c5.41,7,10.45,13.58,15.66,20.33-3.5,1.86-5.61.59-7.6-2.09-4.08-5.49-8.35-10.85-12.55-16.25-.77-1-1.35-2.47-2.94-2.07-2.14.53-1.22,2.42-1.25,3.71-.1,4.81-.06,9.62,0,14.43,0,1.91-.31,3.23-2.69,3.16-2.15-.07-2.28-1.33-2.28-3,0-13.51.06-27,0-40.52,0-2.78,1.13-3.49,3.66-3.35,4.43.24,8.89.05,13.3.45,7.61.68,12.07,5.07,12.35,11.73.28,6.45-3.6,10.93-10.87,12.52C469.74,876.76,468.46,877,466.24,877.38Zm-8.78-13.46c0,8.5,0,8.5,6.4,8.58,8.42.1,12.88-2.61,13-7.93.15-5.59-4.17-7.6-13.82-8.29C456.05,855.79,457.38,860,457.46,863.92Z" transform="translate(-11 -646.82)"></path><path class="cls-3" d="M149.81,792.58c2,1.55,3.3,4.39,6.82,2.47,1.59-.86,2.69,1.49,4.08,2.24a11,11,0,0,0,7.91.85c0,1.9.09,3.81.14,5.72l.05-.09c-1.22.45-1.32,1.42-1.18,2.51a.59.59,0,0,1-.28.74c-4.55,1.94-4.32,6.38-5.3,10.18l0-.07c-2.07.69-3.12,2.49-4.5,4-5.71,6.09-5.88,16.14-14.51,20.2-1.11.53.36,1.49.66,2.24.44,1.09.54,2.22-.44,3a1.71,1.71,0,0,1-1.53.18,3.07,3.07,0,0,1-1.75-3.19c.36-1.77.59-3.74,2.07-5,2.79-2.44,2.49-5.92,1.93-8.72a16.61,16.61,0,0,1-.06-5.07c.56-7,3.83-13.45,3.27-20.55A49.12,49.12,0,0,1,149.81,792.58Z" transform="translate(-11 -646.82)"></path><path class="cls-8" d="M753,875.37q0,9.72,0,19.44c0,1.85.36,3.85-2.57,3.79-2.72-.06-2.14-2-2.15-3.58,0-5.18-.12-10.37,0-15.55.08-2.59-.69-3.58-3.42-3.48-5.74.19-11.49.16-17.22,0-2.49-.06-3.16.9-3.09,3.22a116,116,0,0,1-.07,13.32c-.17,2.06,2.16,6-2.4,5.9-4.09-.05-2.11-3.69-2.14-5.6-.21-11.85-.19-23.7,0-35.54,0-1.94-1.79-5.49,2.42-5.41,3.77.07,2,3.29,2.13,5.14a86.2,86.2,0,0,1,0,10.54c-.14,2.83.77,4,3.76,3.91,5.37-.19,10.75-.24,16.11,0,3.42.16,4-1.4,3.9-4.3-.18-3.88-.07-7.78,0-11.67,0-1.76-.56-3.92,2.52-3.75,2.6.15,2.21,2,2.22,3.6,0,6.67,0,13.33,0,20Z" transform="translate(-11 -646.82)"></path><path class="cls-12" d="M640.69,898.59c-13.26,0-13.26,0-13.27-13.08,0-9.81.15-19.63-.08-29.45-.08-3.48,1-4.48,4.42-4.35,6.11.23,12.23,0,18.34.1,1.66,0,4-.81,4.08,2.24.09,3.49-2.57,2.45-4.36,2.5-4.63.11-9.27.18-13.89,0-3-.12-3.85,1-3.78,3.85.34,13-1.81,10.12,9.85,10.44,3.15.09,6.3,0,9.45,0,1.79,0,2.69.61,2.64,2.61s-1.08,2.47-2.82,2.45c-5.18,0-10.37.08-15.56-.06-2.53-.06-3.45.62-3.6,3.39-.78,14.47-.87,14.47,13.7,14.48,2,0,4.08,0,6.12,0,1.71,0,2.15,1,2.14,2.49s-.6,2.4-2.26,2.38C648.1,898.56,644.4,898.58,640.69,898.59Z" transform="translate(-11 -646.82)"></path><path class="cls-7" d="M170.75,679c-5,1.09-10.57-2.17-15.23,1.84-.93.81-2.06,1.55-2.32-.23a3.62,3.62,0,0,0-4.32-3.26c-2.48.31-1,3.1-1.78,4.61-2.58-2.6-1.85-6.24-2.88-9.33-2.62-7.82-5-15.72-7.53-23.82,8.37-.13,15.47,1.58,20.41,8.86C161.85,664.68,167.81,670.87,170.75,679Z" transform="translate(-11 -646.82)"></path><path class="cls-8" d="M687.81,899.58c-12.72-.16-21.22-6.61-24.28-17.94-3-11.07,1.51-22.07,11.25-27.63,9.54-5.44,22.9-3.94,30.43,3.53,1.06,1.06,3.77,1.9,1.37,4.28-2,2-3.05.36-4.51-.86-9.17-7.64-22-7.12-29.57,1.1-6.85,7.43-6.49,20,.78,27.22s19.75,7.81,28.35.91c1.56-1.25,2.88-3.36,5-1,2.28,2.64-.72,3.51-1.94,4.58A23.46,23.46,0,0,1,687.81,899.58Z" transform="translate(-11 -646.82)"></path><path class="cls-4" d="M217.6,733.58c-1.61.07-2.16,1.06-2.32,2.51s-1.53,2.35-2.2,1.58c-2.8-3.22-7.29.59-10-2.65a1.63,1.63,0,0,0-1.54-.18c-3.79,4.3-6.34-.71-9.47-1.2a1.47,1.47,0,0,0-.72-.09l-.15-3.49c.9-2.63,1.73-5.26-.59-7.65-.18-1.14-.37-2.28-.55-3.42,1.19-1.29.6-2.9.77-4.36,6.26-.3,12.52-.82,18.78-.77,2.63,0,5.25,1.25,7.87,1.93.11,1.19-.15,2.5,1.15,3.27a32.91,32.91,0,0,1,.16,14.48Z" transform="translate(-11 -646.82)"></path><path class="cls-12" d="M591.61,877.11c0,6.92,0,12.39,0,17.86,0,1.94.12,3.76-2.75,3.65-2.51-.09-2.42-1.65-2.42-3.4q0-20,0-40c0-1.72-.14-3.36,2.38-3.47,2.79-.12,2.82,1.57,2.79,3.59-.07,4.18,0,8.36,0,12.88,8.69-4.71,12.71-15.11,22.63-16.88l1.12,1.44c-6,5.63-11.88,11.42-18.1,16.81-2.82,2.44-2.73,3.9-.21,6.48,6.85,7,13.42,14.29,20.4,21.79-3.4,1.39-5.74.82-8-1.72C604,890.11,598.3,884.24,591.61,877.11Z" transform="translate(-11 -646.82)"></path><path class="cls-13" d="M97.5,829.32c5.07,3.36,4,9.11,5.32,13.91,2.1,8,3.85,16,5.83,24a5.85,5.85,0,0,0,1.48,2.93c1.82,1.58,2.41,5.33,5.63,4.44,2.88-.8,1.48-3.8,1.56-5.8.15-4.11,3.6-6.37,5.46-9.28,3.82-6,3.56-12.73,5.49-19,1.24-4,2.35-7.91,4.84-11.32-2,9.2-4.05,18.38-6,27.59a117.64,117.64,0,0,0-2.7,28.11c.11,4-1.25,5-5,5.05-12.67.13-12.58.27-13.13-12.39-.68-15.56-4.66-30.53-8.32-45.55A24.74,24.74,0,0,1,97.5,829.32Z" transform="translate(-11 -646.82)"></path><path class="cls-14" d="M58.26,795.88c4.39,1.91,5.05,6.34,6.75,10.06,1.66,3.25,3,6.63,4.68,9.9,5.6,11.3,13.41,21.43,17.76,33.38.33.91.79,1.79,1.83,1.8,1.24,0,1.1-1.16,1.44-2,1.58-3.86.22-7.16-.88-11-2.29-8-4.3-16.17-4.66-24.58.53.47,1.39.85,1.54,1.42,6,22.71,13.77,45.09,13.44,69,0,.74,0,1.48,0,2.22,0,1.68.14,3.7-2.24,3.71s-2.24-2.15-2.4-3.72a104.45,104.45,0,0,0-7.13-28.39c-6.64-16.76-16-32.17-24.11-48.21C62,805.1,59.34,800.84,58.26,795.88Z" transform="translate(-11 -646.82)"></path><path class="cls-14" d="M147.24,804.19c.56,7.1-2.71,13.6-3.27,20.55a16.61,16.61,0,0,0,.06,5.07c.56,2.8.86,6.28-1.93,8.72-1.48,1.3-1.71,3.27-2.07,5a3.07,3.07,0,0,0,1.75,3.19,1.71,1.71,0,0,0,1.53-.18c1-.82.88-2,.44-3-.3-.75-1.77-1.71-.66-2.24,8.63-4.06,8.8-14.11,14.51-20.2,1.38-1.48,2.43-3.28,4.5-4C156.63,828,151,838.82,145.77,849.84c-5.39,11.44-9.5,23.33-10.61,36.07-.14,1.55.12,3.82-2.24,3.79-2.76,0-2.22-2.44-2.28-4.21a128.41,128.41,0,0,1,3.51-33.11Q139.76,828.05,147.24,804.19Z" transform="translate(-11 -646.82)"></path><path class="cls-8" d="M658.34,797.91c0-6.29.25-12.6-.09-18.87-.21-3.88,1.32-4.53,4.75-4.54s4.47.93,4.39,4.39c-.23,9.62.1,19.25-.18,28.87-.11,3.9,1,5.45,4.93,4.88,1.45-.21,3,.13,4.44-.07,3.29-.47,3.6,1.41,3.53,3.95s.32,4.8-3.55,4.55a124.22,124.22,0,0,0-14.44,0c-3.42.19-3.92-1.37-3.84-4.28C658.47,810.5,658.34,804.21,658.34,797.91Z" transform="translate(-11 -646.82)"></path><path class="cls-4" d="M77.89,729.11c-3.21,1.17-6.43,2.31-9.63,3.52-3.44,1.3-6.83,1.47-10.15-.31-3.14-1.68-6.52-.72-9.79-1-.49-2.95,1.14-6.16-1.13-8.88l.19-3.36c.35-.11,1-.14,1-.33C50.77,710.06,58,712.06,64,712c3,0,5.95-.6,9.16,0,4.43.77,4.19,3,4.19,6.12,0,1.44-2.49,3.66,1,4.32C78.18,724.64,78,726.88,77.89,729.11Z" transform="translate(-11 -646.82)"></path><path class="cls-8" d="M420.38,850.72c7.37,15.78,14.1,30.18,20.79,44.6.46,1,1.87,2.49-.27,3.13-1.6.47-3.25.33-4.17-1.69-1.59-3.55-3.39-7-5.08-10.5-.65-1.34-1.1-3-2.91-3-5.57-.07-11.13,0-16.7,0-1.83,0-2.37,1.46-3,2.83-1.66,3.51-3.52,6.94-5,10.5a3.19,3.19,0,0,1-4.57,1.8c-2.11-.93-.3-2.57.21-3.67C406.25,880.5,413,866.33,420.38,850.72Zm-8.1,28.12c5,0,8.89-.12,12.73,0,3.13.12,2.89-1.21,1.84-3.31-2.05-4.08-4-8.21-6.49-13.3C417.57,868,415.18,872.88,412.28,878.84Z" transform="translate(-11 -646.82)"></path><path class="cls-8" d="M554.62,850.73c7.4,15.87,14.17,30.4,20.92,44.94.42.9,1.43,2.22-.18,2.73s-3.32.59-4.27-1.4c-1.66-3.51-3.35-7-5.05-10.48-.8-1.65-1.44-3.38-3.85-3.34-5.18.08-10.36.06-15.54,0-2.15,0-2.77,1.51-3.49,3-1.67,3.5-3.38,7-5,10.51a3.21,3.21,0,0,1-4.64,1.64c-2-1-.18-2.62.33-3.72C540.51,880.42,547.25,866.27,554.62,850.73Zm0,11.61c-1.23,2.43-2.24,4.13-3,5.94-1.32,3.34-5.41,7.33-3.7,9.65,1.95,2.65,7.17.56,11,.91a5,5,0,0,0,.55,0c1.94.08,2.86-.67,1.92-2.62C559.26,871.78,557.07,867.37,554.6,862.34Z" transform="translate(-11 -646.82)"></path><path class="cls-3" d="M85.18,813.48c.36,8.41,2.37,16.59,4.66,24.58,1.1,3.82,2.46,7.12.88,11-.34.82-.2,2-1.44,2-1,0-1.5-.89-1.83-1.8-4.35-12-12.16-22.08-17.76-33.38-1.63-3.27-3-6.65-4.68-9.9,2.12-1.66,6-.79,6.09-5.52,0-2.39,4.59-2.16,6.16.38a30.41,30.41,0,0,0,6.63,7.32,3.77,3.77,0,0,1,.14,1l1,1.22Z" transform="translate(-11 -646.82)"></path><path class="cls-8" d="M627.28,797.64c0-6.29.19-12.58-.08-18.86-.16-3.56,1.2-4.37,4.47-4.26,3,.09,4.8.22,4.67,4.09-.29,8.87-.16,17.75-.09,26.63.08,8.41-1.21,7.47,7.31,7.26,4.19-.1,6.12.77,5.57,5.39-.28,2.39-1,3.21-3.32,3.15-5-.11-10-.17-15,0-3.11.13-3.67-1.28-3.6-4C627.39,810.59,627.28,804.12,627.28,797.64Z" transform="translate(-11 -646.82)"></path><path class="cls-8" d="M430.63,798.42c0,6.29-.26,12.59.08,18.86.22,4.23-2.31,3.64-4.92,3.78-2.92.16-4.3-.5-4.24-3.91.19-12.94.22-25.89,0-38.83-.08-4.19,2.34-3.6,5-3.76,3-.19,4.32.55,4.2,3.89C430.46,785.1,430.63,791.76,430.63,798.42Z" transform="translate(-11 -646.82)"></path><path class="cls-14" d="M168.59,838.2c-6.71,12.51-14.5,24.46-19.76,37.72-1.43,3.6-2.68,7.28-4.09,10.89-.5,1.27-.69,3.32-2.73,2.7-1.67-.51-.84-2.21-.74-3.4A84.85,84.85,0,0,1,147.61,861a213.22,213.22,0,0,1,17.65-35c.69,5-3.08,8.34-4.68,12.46-2,5.23-4.94,10.12-7.48,15.14-.85,1.68-1,3.62.94,4.13s1.68-1.82,2.41-3C160.12,848.92,162.36,842.07,168.59,838.2Z" transform="translate(-11 -646.82)"></path><path class="cls-3" d="M69.41,850.41l-.17-.41c.35-2-.21-3.39-2.3-3.92l-1-1.69-1-1.72A58.11,58.11,0,0,1,58.2,832l-1-1.62A5.77,5.77,0,0,1,55,827.16c0-1.15,0-2.29,0-3.44,2.24,3.26,4.48,1.8,6.71,0l2.64-.13,3.16,6.16c.09,3.12.8,5.91,4,7.4a12.59,12.59,0,0,1,2.86,5.35c-2.43,3.61.92,4.34,2.88,5.76a.38.38,0,0,1,.25.58c-.69,4.94,1.13,8.78,5.14,11.66l.46,1.63a11.93,11.93,0,0,0,.33,5.7c.83,3.41,4.37,6.4,2,11.18-2.6-5.87-5.88-10.73-7.52-16.38A9.77,9.77,0,0,0,72.61,856l-.08-.32c.35-1.58,0-2.75-1.82-3a.35.35,0,0,1-.27-.53C70.1,851.53,69.75,851,69.41,850.41Z" transform="translate(-11 -646.82)"></path><path class="cls-3" d="M168.59,838.2c-6.23,3.87-8.47,10.72-12.14,16.48-.73,1.16-.58,3.45-2.41,3s-1.79-2.45-.94-4.13c2.54-5,5.44-9.91,7.48-15.14,1.6-4.12,5.37-7.48,4.68-12.46a2.38,2.38,0,0,1,1.08-2.21c5.92-2.86,6-8.83,7.54-14.06.16-.49.33-1,.5-1.49,2.68-.49,1.89-2.61,2-4.29a.44.44,0,0,1,.35-.58c3.05,2.36.33,8,5.2,9.29,0,1.58.07,3.16.11,4.74a11.76,11.76,0,0,1-3.42,5.28c-2.32.1-2.31,1.72-2.22,3.39l0,0-.93,1.39.1-.1c-4.79,2.07-7.38,5.55-7,10.93Z" transform="translate(-11 -646.82)"></path><path class="cls-7" d="M83.73,683.43c-1.41-.88-1.82-1.73-1.21-3.62,1.74-5.46,4-10.95,2.21-16.87-.46-1.47-.51-2.71,1.07-3.13,3.41-.89,1.34-3.67,2.08-5.47a1.25,1.25,0,0,0-.73-1.79c-.88-.31-2.2-.43-2.52.44-1.27,3.37-5.86,5.75-3.13,10.35a3.78,3.78,0,0,1,.2,2.18c-.18,1.36.81,3.37-1,3.9s-2.42-1.52-2.8-2.79c-1.4-4.61-3.44-3.23-5.76-.83-1.66,1.73-3.22,3.71-6.09,3.1,3.12-6.58,7.88-12,13.07-16.89,3.43-3.21,8.63-2.74,13.15-3.33,2-.27,1.87,1.34,1.35,2.64C89.42,661.75,86.73,672.64,83.73,683.43Z" transform="translate(-11 -646.82)"></path><path class="cls-14" d="M64.34,823.57l-2.64.13c-3.51-4.52-4.49-10.18-6.86-15.22-7.23-15.4-13.48-31.11-15.41-48.2,1.12-2.12-3.32-4.9.78-6.68,2.55,17.12,6.71,33.78,14.07,49.52C57.5,810,61,816.75,64.34,823.57Z" transform="translate(-11 -646.82)"></path><path class="cls-7" d="M49.68,684.11c.41-5.27,1.6-10.49,5-14.5,1.82-2.16,2.78-4.43,4.5-7.71-6.34,1.72-10.66,5.38-15.5,7.94-2.51,1.33-4.37,4.09-7.75,3.48,8.6-8.66,19.27-13.7,30.72-17.7C60,664.66,54.89,674.41,49.68,684.11Z" transform="translate(-11 -646.82)"></path><path class="cls-7" d="M200.39,678.83c-5.66-3.08-12.09-4.59-16.13-10.71-1.5-2.28-5.78-3.28-8.61-5.31-1.67-1.21-2.67.44-2.48,2.22s1.33,3.48.85,5.41c-3.19-4.41-6.37-8.83-10.39-14.4C179,660.44,191,667.47,200.39,678.83Z" transform="translate(-11 -646.82)"></path><path class="cls-14" d="M72.61,856a9.77,9.77,0,0,1,5.23,6.66c1.64,5.65,4.92,10.51,7.52,16.38,2.38-4.78-1.16-7.77-2-11.18a11.93,11.93,0,0,1-.33-5.7c4,7.81,5.67,16.22,6.59,24.83.11,1.1.41,2.4-1,2.74s-2-.85-2.31-1.9C83,876.62,77.32,866.5,72.61,856Z" transform="translate(-11 -646.82)"></path><path class="cls-14" d="M18.58,763.61c2.64.32,2.25,3.44,4.13,4.46-.28,3.95,1.95,6.84,3.81,10,5.29,9.11,12,17.5,15.23,27.71l-.43.35C32.05,792.9,23.54,779.2,18.58,763.61Z" transform="translate(-11 -646.82)"></path><path class="cls-14" d="M55,823.72c0,1.15,0,2.29,0,3.44a147.86,147.86,0,0,1-13.69-21l.43-.35c4.17,3.26,7.84,6.75,9.6,12.12C52,819.87,52.37,822.72,55,823.72Z" transform="translate(-11 -646.82)"></path><path class="cls-14" d="M38.25,731.36c0-3.38,0-6.76,1.22-10h.81q-.35,13.32-.7,26.66C36.76,742.66,39.06,736.89,38.25,731.36Z" transform="translate(-11 -646.82)"></path><path class="cls-7" d="M174.37,671.21c4.38,4,8.43,8.17,7.42,14.87Q178.07,678.64,174.37,671.21Z" transform="translate(-11 -646.82)"></path><path class="cls-14" d="M173.88,809.66c-1.5,5.23-1.62,11.2-7.54,14.06C168.41,818.8,170.59,813.93,173.88,809.66Z" transform="translate(-11 -646.82)"></path><path class="cls-14" d="M168.6,838.19c-.37-5.38,2.22-8.86,7-10.93A49,49,0,0,1,168.6,838.19Z" transform="translate(-11 -646.82)"></path><path class="cls-14" d="M82.58,860.48c-4-2.88-5.83-6.72-5.14-11.66A40.15,40.15,0,0,1,82.58,860.48Z" transform="translate(-11 -646.82)"></path><path class="cls-7" d="M217.85,713.52c-2.34-3.57-2.78-7.69-3.37-11.77C217.18,705.23,217.86,709.28,217.85,713.52Z" transform="translate(-11 -646.82)"></path><path class="cls-7" d="M45.19,696.21c-.09-4-.06-8,4-10.53C48.22,689.34,47.29,693,45.19,696.21Z" transform="translate(-11 -646.82)"></path><path class="cls-14" d="M162.05,817.2c1-3.8.75-8.24,5.3-10.18A33,33,0,0,1,162.05,817.2Z" transform="translate(-11 -646.82)"></path><path class="cls-6" d="M47.19,722.43c2.27,2.72.64,5.93,1.13,8.88l-1.92.05C46,728.32,45.83,725.31,47.19,722.43Z" transform="translate(-11 -646.82)"></path><path class="cls-7" d="M36,673.28c.69,4.45-1.59,5.89-5.63,5.57A12.2,12.2,0,0,1,36,673.28Z" transform="translate(-11 -646.82)"></path><path class="cls-7" d="M190.88,714.63c-.17,1.46.42,3.07-.77,4.36q-.92-5.54-1.84-11C190.55,709.62,190.63,712.15,190.88,714.63Z" transform="translate(-11 -646.82)"></path><path class="cls-7" d="M65.14,670.37c-.29,3.21-.27,6.6-4.43,7.54C61.45,675,62.55,672.23,65.14,670.37Z" transform="translate(-11 -646.82)"></path><path class="cls-7" d="M212.65,696.83c-2.45-1.65-4.37-3.58-3.78-6.89A10.14,10.14,0,0,1,212.65,696.83Z" transform="translate(-11 -646.82)"></path><path class="cls-6" d="M41.55,711.24c-1.49-2.92-2.24-5.7,1.47-7.62C43,706.25,43.08,708.9,41.55,711.24Z" transform="translate(-11 -646.82)"></path><path class="cls-11" d="M77.14,754.66a19.25,19.25,0,0,1,0-13.28A64.07,64.07,0,0,1,77.14,754.66Z" transform="translate(-11 -646.82)"></path><path class="cls-14" d="M168.76,803.86c0-1.91-.1-3.82-.14-5.72L172,797A15.21,15.21,0,0,1,168.76,803.86Z" transform="translate(-11 -646.82)"></path><path class="cls-14" d="M71.45,837.13c-3.15-1.49-3.86-4.28-4-7.4C69.66,831.74,70.62,834.4,71.45,837.13Z" transform="translate(-11 -646.82)"></path><path class="cls-4" d="M90.47,688.33c.11,3,2,6.47-2,8.5C88.48,693.84,88.61,690.88,90.47,688.33Z" transform="translate(-11 -646.82)"></path><path class="cls-7" d="M184.84,694.58c2,1.8,3.19,3.82,1.89,6.56C185.22,699.21,185.06,696.89,184.84,694.58Z" transform="translate(-11 -646.82)"></path><path class="cls-7" d="M191.4,733.55a1.47,1.47,0,0,1,.72.09c0,1.5,0,3,.07,4.48v4.23c-.05,1.13-.09,2.26-.13,3.39l-.45,0-.45,0Z" transform="translate(-11 -646.82)"></path><path class="cls-7" d="M206.66,686.7c-3.19-.72-4.36-3-4.47-6A10.84,10.84,0,0,1,206.66,686.7Z" transform="translate(-11 -646.82)"></path><path class="cls-14" d="M182.06,817.33c0-1.58-.07-3.16-.11-4.74,1.24-.59,2.46-1.25,3.92-.91A14.55,14.55,0,0,1,182.06,817.33Z" transform="translate(-11 -646.82)"></path><path class="cls-11" d="M47.31,747.94a9.58,9.58,0,0,1,.18,8.91l-.9-8.85.37,0Z" transform="translate(-11 -646.82)"></path><path class="cls-14" d="M77.19,848.24c-2-1.42-5.31-2.15-2.88-5.76A12.24,12.24,0,0,1,77.19,848.24Z" transform="translate(-11 -646.82)"></path><path class="cls-7" d="M217.6,733.58l1.24,0a6.45,6.45,0,0,1-.85,6.24Z" transform="translate(-11 -646.82)"></path><path class="cls-7" d="M190.66,722.41c2.32,2.39,1.49,5,.59,7.65C190.76,727.53,190.14,725,190.66,722.41Z" transform="translate(-11 -646.82)"></path><path class="cls-6" d="M13.87,708c1.43,2.15,2.25,4.19-1,5.52A7.69,7.69,0,0,1,13.87,708Z" transform="translate(-11 -646.82)"></path><path class="cls-13" d="M133.41,828.36c-2.6-2.82.06-4.12,1.66-5.72A10.65,10.65,0,0,1,133.41,828.36Z" transform="translate(-11 -646.82)"></path><path class="cls-14" d="M15.76,754.71c1.67,1.5,2.7,3.18,1.59,5.48A9.14,9.14,0,0,1,15.76,754.71Z" transform="translate(-11 -646.82)"></path><path class="cls-6" d="M11.65,723.58c1.77,1.57.77,3.66,1,5.51l-.53,0-.54,0A6.27,6.27,0,0,1,11.65,723.58Z" transform="translate(-11 -646.82)"></path><path class="cls-7" d="M23.82,686.8c.13,2.27-.31,4.16-3.06,4.47A7.41,7.41,0,0,1,23.82,686.8Z" transform="translate(-11 -646.82)"></path><path class="cls-4" d="M142.79,699c-2.93-.94-2.42-2.59-.93-4.45A5.44,5.44,0,0,1,142.79,699Z" transform="translate(-11 -646.82)"></path><path class="cls-6" d="M77.34,736.89c.87-1.8-2.59-3.88.36-5.54A7.91,7.91,0,0,1,77.34,736.89Z" transform="translate(-11 -646.82)"></path><path class="cls-14" d="M176.4,803.88c-.13,1.68.66,3.8-2,4.29A7.87,7.87,0,0,1,176.4,803.88Z" transform="translate(-11 -646.82)"></path><path class="cls-6" d="M40.59,716.86c-1.62-1.39-1.65-2.53.52-3.33A3.82,3.82,0,0,1,40.59,716.86Z" transform="translate(-11 -646.82)"></path><path class="cls-1" d="M84.59,733.55l1.59,0c0,1.39.25,2.95-1.75,3.31C84.48,735.77,84.54,734.66,84.59,733.55Z" transform="translate(-11 -646.82)"></path><path class="cls-14" d="M176.42,826c-.09-1.67-.1-3.29,2.22-3.39A5.46,5.46,0,0,1,176.42,826Z" transform="translate(-11 -646.82)"></path><path class="cls-14" d="M53.26,782.5c.77.14,1.92-.34,2.07.84.05.4-.86.92-1.34,1.39A2.22,2.22,0,0,1,53.26,782.5Z" transform="translate(-11 -646.82)"></path><path class="cls-14" d="M66.94,846.08c2.09.53,2.65,1.95,2.3,3.92A5.76,5.76,0,0,1,66.94,846.08Z" transform="translate(-11 -646.82)"></path><path class="cls-7" d="M218.68,719.06c-1.3-.77-1-2.08-1.15-3.27a4.43,4.43,0,0,1,.89,0C219,716.81,219.39,717.89,218.68,719.06Z" transform="translate(-11 -646.82)"></path><path class="cls-6" d="M47.31,747.94,47,748l-.37,0a7.08,7.08,0,0,1-.27-4.34C47.71,744.85,47,746.5,47.31,747.94Z" transform="translate(-11 -646.82)"></path><path class="cls-7" d="M26.89,682.76c.32,1.7-.12,2.84-2.11,2.8A3.53,3.53,0,0,1,26.89,682.76Z" transform="translate(-11 -646.82)"></path><path class="cls-14" d="M70.71,852.63c1.85.25,2.17,1.42,1.82,3A3.8,3.8,0,0,1,70.71,852.63Z" transform="translate(-11 -646.82)"></path><path class="cls-7" d="M30.36,678.82c.17,1.72-.73,2.41-2.34,2.39A3.18,3.18,0,0,1,30.36,678.82Z" transform="translate(-11 -646.82)"></path><path class="cls-14" d="M14.27,750.26c1.32.31,2.24.78.83,2.15C14.82,751.69,14.54,751,14.27,750.26Z" transform="translate(-11 -646.82)"></path><path class="cls-4" d="M154.06,764.71c-.31,0-.62,0-.93,0,.05-1.07.1-2.13.16-3.2C154.35,762.37,154.08,763.57,154.06,764.71Z" transform="translate(-11 -646.82)"></path><path class="cls-7" d="M148.91,693.58a2.31,2.31,0,0,1,.62,2.36A2,2,0,0,1,148.91,693.58Z" transform="translate(-11 -646.82)"></path><path class="cls-14" d="M57,792.62c1.27.56,1.28,1.63,1.13,2.77A3.18,3.18,0,0,1,57,792.62Z" transform="translate(-11 -646.82)"></path><path class="cls-7" d="M208.91,690c-1.09-.28-1.33-1.11-1.34-2.09A2.17,2.17,0,0,1,208.91,690Z" transform="translate(-11 -646.82)"></path><path class="cls-14" d="M167.63,806.28c-.14-1.09,0-2.06,1.18-2.51A2.75,2.75,0,0,1,167.63,806.28Z" transform="translate(-11 -646.82)"></path><path class="cls-14" d="M56,790.3a2,2,0,0,1,1.07,2.43A2.44,2.44,0,0,1,56,790.3Z" transform="translate(-11 -646.82)"></path><path class="cls-7" d="M44.05,700.54a2.25,2.25,0,0,1,.8-2.56A2.49,2.49,0,0,1,44.05,700.54Z" transform="translate(-11 -646.82)"></path><path class="cls-7" d="M43,703.7c-.1-.42-.21-.85-.31-1.27a4,4,0,0,1,.85,0Z" transform="translate(-11 -646.82)"></path><path class="cls-7" d="M182.08,686.83l.81,1.62Z" transform="translate(-11 -646.82)"></path><path class="cls-14" d="M64.94,842.67l1,1.72Z" transform="translate(-11 -646.82)"></path><path class="cls-7" d="M90.85,683.5a3.46,3.46,0,0,1,.23.82c0,.07-.27.17-.42.25Z" transform="translate(-11 -646.82)"></path><path class="cls-7" d="M20.4,692.12l-.81,1.39Z" transform="translate(-11 -646.82)"></path><path class="cls-11" d="M85,810.34l-1-1.22C84.64,809.31,85.14,809.57,85,810.34Z" transform="translate(-11 -646.82)"></path><path class="cls-7" d="M183,689a6.28,6.28,0,0,1,.61.66s-.18.25-.28.39Z" transform="translate(-11 -646.82)"></path><path class="cls-7" d="M174.26,686.82l-1-1.81C173.59,685.61,173.93,686.21,174.26,686.82Z" transform="translate(-11 -646.82)"></path><path class="cls-7" d="M24.84,685.53l-1,1.26Z" transform="translate(-11 -646.82)"></path><path class="cls-3" d="M177.12,802.5l.72.64-.94-.09A.47.47,0,0,1,177.12,802.5Z" transform="translate(-11 -646.82)"></path><path class="cls-7" d="M140.42,685.63l-.6-1.55Z" transform="translate(-11 -646.82)"></path><path class="cls-4" d="M153.16,730.26a4.55,4.55,0,0,1,.42.69s-.2.2-.31.31A.77.77,0,0,1,153.16,730.26Z" transform="translate(-11 -646.82)"></path><path class="cls-7" d="M82.6,690.12a4.24,4.24,0,0,1-.24-.82c0-.07.26-.17.41-.26C82.71,689.4,82.65,689.76,82.6,690.12Z" transform="translate(-11 -646.82)"></path><path class="cls-7" d="M60.42,678.55l-1,1.56Z" transform="translate(-11 -646.82)"></path><path class="cls-6" d="M40.28,721.37h-.81l.89-1.14C40.33,720.61,40.3,721,40.28,721.37Z" transform="translate(-11 -646.82)"></path><path class="cls-14" d="M51.9,778.14c.22.56.44,1.12.67,1.68C52.34,779.26,52.12,778.7,51.9,778.14Z" transform="translate(-11 -646.82)"></path><path class="cls-14" d="M55.2,788.11c.25.58.49,1.16.74,1.75C55.69,789.27,55.45,788.69,55.2,788.11Z" transform="translate(-11 -646.82)"></path><path class="cls-7" d="M147.45,684.59a6.76,6.76,0,0,1,.51.72c0,.05-.22.23-.35.34C147.56,685.3,147.51,685,147.45,684.59Z" transform="translate(-11 -646.82)"></path><path class="cls-7" d="M66.07,668.87c-.27.43-.55.85-.82,1.27C65.52,669.72,65.8,669.3,66.07,668.87Z" transform="translate(-11 -646.82)"></path><path class="cls-14" d="M175.51,827.36l.93-1.39Z" transform="translate(-11 -646.82)"></path><path class="cls-7" d="M175.34,689c-.33-.57-.66-1.14-1-1.72Z" transform="translate(-11 -646.82)"></path><path class="cls-7" d="M215.62,752.91l.36-1.45Z" transform="translate(-11 -646.82)"></path><path class="cls-2" d="M152.85,769.86c-.08.44-.16.88-.23,1.31C152.7,770.73,152.77,770.3,152.85,769.86Z" transform="translate(-11 -646.82)"></path><path class="cls-7" d="M147.83,688l.5,1.67Z" transform="translate(-11 -646.82)"></path><path class="cls-14" d="M57.18,830.41l1,1.62Z" transform="translate(-11 -646.82)"></path><path class="cls-14" d="M69.41,850.41c.34.56.69,1.12,1,1.69C70.1,851.53,69.75,851,69.41,850.41Z" transform="translate(-11 -646.82)"></path><path class="cls-1" d="M55,823.72c-2.62-1-3-3.85-3.64-5.77-1.76-5.37-5.43-8.86-9.6-12.12-3.28-10.21-9.94-18.6-15.23-27.71-1.86-3.21-4.09-6.1-3.81-10,3-1.14,5.85-2.71,9.32-2.35,3.93.4,4.45-4.26,7.4-5.44,1.93,17.09,8.18,32.8,15.41,48.2,2.37,5,3.35,10.7,6.86,15.22C59.47,825.52,57.23,827,55,823.72Z" transform="translate(-11 -646.82)"></path><path class="cls-11" d="M192.19,742.35v-4.23A2.83,2.83,0,0,1,192.19,742.35Z" transform="translate(-11 -646.82)"></path></svg>