<?xml version="1.0" standalone="no"?>
<!DOCTYPE svg PUBLIC "-//W3C//DTD SVG 20010904//EN"
 "http://www.w3.org/TR/2001/REC-SVG-20010904/DTD/svg10.dtd">
<svg version="1.0" xmlns="http://www.w3.org/2000/svg"
 width="1080.000000pt" height="1080.000000pt" viewBox="0 0 1080.000000 1080.000000"
 preserveAspectRatio="xMidYMid meet">

<g transform="translate(0.000000,1080.000000) scale(0.100000,-0.100000)"
fill="#0A2463" stroke="none">
<path d="M5090 10084 c-19 -2 -87 -9 -150 -15 -744 -68 -1508 -340 -2135 -759
-881 -589 -1530 -1440 -1862 -2440 -216 -653 -284 -1368 -197 -2070 33 -267
109 -601 198 -870 168 -509 447 -1028 771 -1436 251 -314 561 -619 848 -833
699 -520 1467 -826 2332 -928 214 -25 796 -25 1010 0 934 110 1787 472 2499
1062 231 191 546 520 737 770 220 288 479 744 608 1070 231 583 341 1151 341
1765 0 735 -158 1417 -481 2070 -369 748 -891 1346 -1589 1822 -464 316 -1006
552 -1570 682 -363 83 -572 107 -995 111 -181 2 -346 1 -365 -1z m-750 -2698
c89 -12 278 -52 288 -61 2 -2 -12 -31 -30 -65 -18 -35 -41 -79 -52 -99 -10
-20 -36 -67 -58 -105 l-40 -68 -681 7 -680 7 -86 29 c-77 26 -97 29 -219 29
-118 0 -133 2 -122 15 10 12 38 15 130 15 102 0 129 4 216 31 l99 30 535 14
c294 8 605 15 690 17 212 3 92 7 -485 16 l-490 8 -85 27 c-63 20 -116 28 -202
33 -65 3 -116 9 -113 13 2 5 69 11 147 14 79 4 193 16 253 27 183 33 365 61
455 69 142 14 418 12 530 -3z m1520 -31 c0 -3 -19 -43 -42 -90 l-42 -85 -96 0
c-52 1 -178 5 -280 10 -165 8 -197 12 -282 39 -84 27 -109 31 -212 31 -90 0
-117 3 -114 13 3 8 47 14 149 18 117 6 165 12 254 37 l110 31 278 1 c152 0
277 -2 277 -5z m1270 1 c0 -7 -83 -170 -89 -176 -3 -3 -27 -49 -53 -102 l-48
-98 -62 0 c-35 1 -162 5 -283 9 -210 8 -224 10 -308 40 -81 28 -99 31 -212 31
-106 0 -124 2 -119 15 5 12 29 15 130 15 109 0 137 4 226 30 96 29 115 31 397
42 327 14 329 22 7 33 -191 6 -217 9 -304 36 -84 26 -109 29 -224 29 -99 0
-129 3 -126 13 3 8 46 14 144 18 89 4 157 13 189 23 115 39 165 44 453 45 155
1 282 -1 282 -3z m1610 -20 c79 -26 162 -72 201 -112 l33 -34 -235 1 c-128 0
-425 4 -659 8 -423 8 -425 8 -498 34 -58 21 -100 27 -206 33 -107 5 -133 10
-129 20 4 11 35 14 138 14 106 0 146 4 200 21 118 36 142 38 625 35 425 -2
481 -4 530 -20z m260 -188 c56 -91 73 -247 41 -380 -23 -97 -57 -177 -78 -185
-8 -3 -121 -1 -251 5 -219 11 -242 13 -307 38 -60 24 -89 28 -208 32 -97 3
-137 8 -134 16 2 7 54 13 148 17 121 6 156 11 219 34 69 25 96 28 325 40 l250
12 -190 2 c-104 1 -455 6 -780 10 l-590 8 -75 28 c-62 23 -97 29 -205 34 -79
4 -129 10 -128 16 2 6 60 12 135 15 106 5 152 12 228 34 l95 29 720 12 c396 6
686 13 645 14 -41 1 -349 6 -683 11 l-608 10 -88 29 c-76 25 -107 30 -215 32
-86 2 -126 7 -126 15 0 7 45 13 138 18 107 5 158 12 223 32 83 25 92 26 519
35 239 5 532 10 650 12 118 1 236 3 263 5 44 2 49 0 67 -30z m-3258 -30 c-16
-29 -64 -119 -107 -200 -42 -82 -80 -148 -83 -148 -4 0 -126 5 -272 10 -248
10 -272 12 -369 40 -88 25 -121 30 -218 30 -87 0 -114 3 -111 13 3 8 45 14
139 18 108 5 150 12 214 33 74 25 100 28 353 38 149 7 272 15 272 20 0 4 -44
8 -97 9 -221 1 -375 15 -456 43 -67 23 -94 26 -202 26 -79 0 -125 4 -125 10 0
20 52 30 158 30 83 0 128 6 202 26 82 22 132 27 365 38 149 7 292 14 318 15
l49 1 -30 -52z m-1337 -226 c-68 -133 -60 -126 -127 -103 -200 69 -443 76
-576 16 l-57 -25 -365 9 -365 9 -85 31 c-76 28 -97 31 -202 31 -108 0 -143 8
-102 24 9 3 69 6 134 6 102 0 131 4 220 30 l102 31 632 13 c347 7 677 14 734
15 l103 1 -46 -88z m2525 72 c0 -3 -21 -47 -47 -96 l-47 -91 -273 7 c-267 7
-276 8 -363 37 -81 26 -102 29 -220 29 -102 0 -130 3 -130 13 0 11 32 16 138
21 105 5 161 13 242 36 94 26 129 30 325 38 295 12 375 13 375 6z m1080 -190
c0 -4 -24 -51 -52 -105 l-53 -99 -50 0 c-27 0 -156 7 -285 15 -214 13 -243 17
-324 45 -79 26 -103 30 -202 30 -110 0 -155 11 -93 24 18 3 75 6 128 6 73 0
117 6 186 26 75 22 134 29 360 44 308 20 385 23 385 14z m-4377 -44 c-5 -37
-2 -44 34 -78 21 -20 59 -45 83 -54 45 -16 44 -17 -150 -17 -107 0 -319 4
-470 8 -258 8 -280 10 -353 35 -42 14 -96 26 -120 26 -76 0 -207 13 -207 20 0
4 60 10 133 14 98 6 159 15 237 37 95 26 127 29 340 37 129 5 290 10 357 10
l121 2 -5 -40z m3105 -140 c-51 -99 -100 -190 -109 -201 l-16 -22 -279 11
c-274 10 -281 11 -366 41 -79 28 -97 31 -208 31 -93 0 -121 3 -118 13 3 8 47
14 149 18 118 5 158 11 224 33 75 24 100 27 378 38 311 13 368 26 117 27 -209
2 -352 16 -445 45 -62 20 -102 26 -175 26 -100 0 -140 6 -140 21 0 5 52 9 115
9 98 0 130 4 222 31 101 29 127 32 378 44 149 7 292 13 318 14 l48 1 -93 -180z
m-1188 164 c0 -3 -21 -45 -47 -94 l-48 -90 -75 1 c-41 0 -167 4 -280 8 -190 8
-212 11 -301 40 -85 28 -109 31 -213 31 -90 0 -117 3 -114 13 3 8 46 14 142
19 92 5 157 13 199 27 34 10 76 22 92 26 56 14 645 31 645 19z m-1677 -205
c84 -43 207 -139 207 -162 0 -7 -185 -8 -599 -4 l-598 6 -92 31 c-82 27 -104
30 -217 30 -96 0 -125 3 -122 13 3 8 44 14 134 18 97 5 158 14 249 37 117 31
127 32 445 40 553 15 545 15 593 -9z m5067 -36 c-48 -85 -142 -194 -236 -274
l-84 -71 -742 10 -743 9 -80 28 c-67 24 -101 29 -212 32 -97 4 -133 8 -133 17
0 9 39 15 143 19 111 6 161 13 227 33 l85 26 753 12 c413 7 755 16 759 19 3 4
-232 7 -523 8 -291 0 -623 4 -739 9 -189 7 -216 10 -270 32 -49 20 -85 26
-189 31 -118 5 -146 10 -135 21 2 3 63 8 134 11 82 4 152 14 190 25 33 11 87
24 120 30 54 10 771 24 1458 28 l249 2 -32 -57z m-3500 41 c0 -3 -21 -46 -46
-95 l-46 -89 -87 0 c-47 0 -179 5 -292 10 -193 8 -212 10 -293 39 -79 28 -100
31 -204 31 -156 0 -135 17 33 26 93 5 153 14 210 31 57 17 122 27 225 34 255
16 500 23 500 13z m-1307 -244 c30 -59 56 -155 57 -207 l0 -33 98 0 c79 0 117
6 202 31 110 32 282 48 527 49 57 0 105 4 108 10 4 6 -31 10 -97 10 -201 1
-358 16 -448 43 -59 18 -121 28 -202 32 -65 4 -118 10 -118 14 0 5 59 11 131
14 101 5 156 13 238 36 100 28 122 30 405 40 165 6 300 10 302 9 1 -2 -22 -48
-51 -103 -144 -270 -166 -318 -172 -366 -6 -49 -5 -50 42 -96 l48 -45 -79 6
c-43 3 -191 10 -329 16 -297 12 -317 15 -409 46 -53 18 -93 24 -157 24 l-85 0
-17 -35 -17 -35 -117 1 c-65 0 -235 4 -378 8 -249 8 -263 9 -330 35 -59 23
-92 28 -202 33 -190 9 -170 33 26 33 77 0 117 6 201 30 103 30 111 31 457 42
194 6 351 13 349 15 -2 2 -176 8 -387 12 l-384 8 -89 32 c-81 28 -101 31 -210
31 -109 1 -119 2 -102 15 15 11 49 15 132 15 91 0 128 5 200 26 99 29 194 37
613 50 135 4 241 9 236 11 -6 2 -252 7 -545 12 l-535 8 -99 31 c-87 28 -112
32 -213 32 -87 0 -114 3 -111 13 3 8 45 14 139 18 102 4 158 12 232 33 96 26
112 27 530 40 238 7 466 13 507 12 l74 -1 29 -55z m2477 44 c0 -4 -21 -47 -47
-95 l-47 -89 -90 1 c-50 0 -179 4 -286 8 -181 7 -202 10 -290 39 -84 28 -107
32 -208 32 -81 0 -113 3 -110 11 3 8 45 13 128 14 107 2 140 6 230 33 95 29
124 32 310 40 268 12 410 14 410 6z m-147 -289 l-48 -95 -130 1 c-71 0 -206 4
-300 8 -148 7 -179 12 -240 35 -57 22 -93 28 -198 33 -76 4 -124 10 -119 15 5
5 76 13 158 18 106 6 168 15 214 30 36 12 92 24 125 26 55 5 372 19 522 22
l63 2 -47 -95z m2082 60 c-109 -63 -309 -126 -454 -144 -46 -6 -270 -6 -571
-1 l-495 8 -80 27 c-66 22 -103 28 -213 32 -93 4 -132 9 -129 17 2 7 51 13
138 17 102 4 158 12 236 33 l103 27 517 8 c285 4 628 8 763 9 l245 1 -60 -34z
m-1008 -255 l-52 -100 -90 1 c-49 0 -180 4 -290 8 -180 8 -207 11 -270 35 -58
21 -94 27 -207 33 -76 3 -138 9 -138 13 0 15 34 20 147 20 98 0 133 5 222 30
92 25 138 31 341 43 129 8 270 15 312 16 l77 1 -52 -100z m-1137 85 c0 -9 -92
-190 -99 -195 -4 -3 -10 -13 -14 -23 -4 -9 -30 -53 -58 -97 l-51 -80 -236 1
c-131 0 -523 4 -872 8 l-635 8 -72 26 c-57 20 -100 27 -200 32 l-128 7 -37
-48 c-47 -63 -158 -174 -207 -208 l-37 -26 -745 9 -744 8 -74 27 c-49 17 -95
26 -135 26 -93 0 -198 12 -189 21 5 5 67 11 138 15 95 5 152 14 210 32 95 29
243 36 1053 48 271 4 490 9 487 12 -2 3 -312 8 -687 12 l-683 8 -93 31 c-82
28 -105 31 -207 31 -63 0 -115 4 -115 9 0 15 22 18 137 20 91 2 130 8 215 32
l103 31 660 13 c363 8 743 14 844 14 l183 1 -17 -27 c-49 -76 -61 -69 93 -61
101 5 154 12 202 28 52 18 101 24 245 31 267 12 590 11 675 -2 62 -10 95 -9
187 5 83 12 186 16 403 16 160 0 289 4 286 8 -3 5 -103 12 -223 15 -208 6
-223 8 -311 37 -82 27 -104 30 -216 30 -101 0 -124 3 -120 14 4 9 40 15 137
20 87 5 165 15 229 32 81 20 144 27 370 38 349 17 348 17 348 11z m1070 -202
c0 -5 -22 -48 -48 -98 l-48 -90 -170 3 c-294 6 -398 16 -500 51 -82 28 -104
31 -209 31 -65 0 -114 4 -111 9 3 5 65 12 138 16 99 5 160 15 238 36 96 26
126 29 350 37 352 13 360 13 360 5z m-1310 -210 c0 -12 -174 -183 -186 -183
-6 0 -17 -7 -24 -15 -7 -9 -40 -32 -73 -51 -185 -108 -414 -157 -742 -157
-229 0 -375 16 -545 59 -99 25 -168 36 -257 41 -68 3 -123 10 -123 15 0 10
-15 9 135 15 97 4 153 11 220 30 108 31 114 31 795 47 427 11 491 14 315 16
-121 1 -445 5 -720 9 l-500 7 -66 26 c-54 21 -90 27 -202 33 -75 4 -137 11
-137 15 0 8 132 20 217 20 29 0 87 11 130 24 43 14 95 28 115 31 76 14 1648
31 1648 18z m1153 -88 l-48 -95 -50 0 c-27 0 -159 5 -292 10 -226 10 -245 12
-310 37 -57 23 -89 28 -197 33 -83 3 -131 9 -133 16 -3 8 39 13 139 17 119 4
156 9 223 31 70 24 104 28 270 35 105 4 247 9 318 9 l127 2 -47 -95z m-3589
-114 c-5 -5 -43 -27 -84 -49 -228 -122 -517 -171 -935 -159 -240 7 -397 25
-574 67 -97 24 -146 30 -230 30 -74 0 -113 4 -125 13 -16 12 0 15 117 20 105
5 160 13 244 37 l108 30 525 8 c772 13 965 13 954 3z m3525 2 c0 -5 -20 -44
-44 -88 l-43 -80 -288 1 -289 0 -75 29 c-64 24 -94 28 -207 32 -104 4 -133 8
-133 19 0 11 26 14 130 14 115 0 142 3 233 30 92 27 122 31 307 39 284 11 410
12 409 4z m-1920 -1177 c51 -27 90 -75 106 -130 18 -61 22 -651 4 -719 -15
-60 -58 -118 -109 -147 -39 -22 -58 -25 -135 -25 -98 0 -127 10 -179 62 -16
15 -38 48 -50 73 -20 42 -21 64 -24 368 -3 273 -1 331 13 378 19 67 71 127
128 148 57 21 199 16 246 -8z m-3002 -18 c25 -17 49 -45 64 -75 24 -48 24 -50
24 -398 0 -347 0 -350 -24 -403 -27 -61 -66 -97 -119 -112 -20 -5 -110 -10
-199 -10 l-163 0 0 516 0 515 188 -3 c185 -3 189 -3 229 -30z m673 -68 l0
-100 -100 0 -100 0 0 -100 0 -100 95 0 95 0 0 -100 0 -100 -95 0 -95 0 0 -115
0 -115 105 0 105 0 0 -100 0 -100 -215 0 -215 0 0 515 0 515 210 0 210 0 0
-100z m334 58 c3 -24 19 -171 36 -328 17 -156 32 -285 33 -287 1 -1 15 134 30
300 16 166 30 314 33 330 l6 27 99 0 99 0 -5 -37 c-7 -51 -103 -833 -111 -903
-10 -97 3 -90 -157 -90 l-142 0 -59 483 c-32 265 -61 497 -64 515 l-5 32 101
0 100 0 6 -42z m894 -55 l-3 -98 -102 -3 -103 -3 0 -99 0 -100 100 0 101 0 -3
-97 -3 -98 -97 -3 -98 -3 0 -114 0 -115 110 0 110 0 0 -100 0 -100 -215 0
-215 0 0 515 0 515 210 0 211 0 -3 -97z m372 -328 l0 -425 105 0 105 0 0 -90
0 -90 -212 0 -213 0 3 515 2 515 105 0 105 0 0 -425z m1397 404 c76 -37 111
-111 120 -254 10 -161 -28 -281 -102 -322 -32 -18 -56 -23 -117 -23 l-78 0 0
-205 0 -205 -105 0 -105 0 0 515 0 515 172 0 c154 0 176 -2 215 -21z m628
-270 c24 -177 42 -284 47 -273 6 17 78 522 78 553 0 8 47 11 160 11 l160 0 2
-515 3 -515 -97 0 -98 0 -1 338 -1 337 -28 -160 c-15 -88 -40 -240 -55 -337
l-28 -178 -93 0 c-89 0 -94 1 -99 23 -3 12 -30 164 -59 337 l-54 315 -1 -337
-1 -338 -95 0 -95 0 0 515 0 515 158 0 158 0 39 -291z m1035 191 l0 -100 -100
0 -100 0 0 -100 0 -100 95 0 95 0 0 -101 c0 -98 -1 -100 -22 -99 -13 1 -56 2
-95 1 l-73 -1 0 -115 0 -115 105 0 105 0 0 -100 0 -100 -215 0 -215 0 0 515 0
515 210 0 210 0 0 -100z m385 78 c2 -13 22 -113 44 -223 l39 -200 1 223 1 222
103 0 102 0 0 -515 0 -515 -102 0 c-98 0 -103 1 -108 23 -3 12 -25 119 -49
237 l-44 215 -1 -237 -1 -238 -105 0 -105 0 0 515 0 515 110 0 c106 0 110 -1
115 -22z m883 -75 l-3 -98 -62 -3 -63 -3 0 -414 0 -415 -105 0 -105 0 0 415 0
415 -60 0 -60 0 0 100 0 100 230 0 231 0 -3 -97z"/>
<path d="M4185 6018 c-3 -13 -7 -34 -9 -48 -2 -14 -7 -43 -11 -64 l-8 -39 99
6 c62 4 130 15 184 31 76 23 113 27 367 38 155 7 281 14 278 16 -2 2 -118 8
-257 13 -244 8 -257 10 -343 39 -76 26 -104 30 -192 30 -98 0 -103 -1 -108
-22z"/>
<path d="M5166 3984 c-14 -13 -16 -56 -16 -318 0 -281 1 -304 18 -319 23 -21
36 -21 56 -1 14 13 16 56 16 315 0 188 -4 308 -10 320 -13 23 -43 25 -64 3z"/>
<path d="M2120 3670 c0 -361 -1 -356 57 -328 l28 13 0 313 c0 341 2 332 -57
332 l-28 0 0 -330z"/>
<path d="M5820 3870 c0 -119 0 -120 23 -120 51 0 62 21 62 120 0 99 -11 120
-62 120 -23 0 -23 -1 -23 -120z"/>
</g>
</svg> 